{
.appVersion = "116";
copyright = "© 2015-2023 Apple Inc. All rights reserved.";
date = "2016-12-14 19:49:56 +0000";
designer = "Apple Inc.";
designerURL = "http://www.apple.com/";
familyName = "SF Soft Time";
featurePrefixes = (
{
automatic = 1;
code = "languagesystem DFLT dflt;\012languagesystem arab dflt;\012languagesystem arab URD;\012";
name = Languagesystems;
}
);
features = (
{
automatic = 1;
code = "feature locl;\012";
name = aalt;
},
{
automatic = 1;
code = "script arab;\012language URD;\012sub four-persian by four-persian.urdu;\012sub six-persian by six-ar;\012sub seven-persian by seven-persian.urdu;\012";
name = locl;
}
);
fontMaster = (
{
ascender = 1950;
capHeight = 1443;
descender = -494;
id = "EC0A993D-47FA-4182-AC72-4A7420448146";
weightValue = 400;
widthValue = 5;
xHeight = 1054;
}
);
glyphs = (
{
glyphname = zero;
layers = (
{
layerId = "EC0A993D-47FA-4182-AC72-4A7420448146";
paths = (
{
closed = 1;
nodes = (
"500 -24 OFFCURVE",
"404.333 6.5 OFFCURVE",
"325 67.5 CURVE SMOOTH",
"245.667 128.5 OFFCURVE",
"185 214.833 OFFCURVE",
"143 326.5 CURVE SMOOTH",
"101 438.167 OFFCURVE",
"80 570 OFFCURVE",
"80 722 CURVE SMOOTH",
"80 872.667 OFFCURVE",
"101 1003.833 OFFCURVE",
"143 1115.5 CURVE SMOOTH",
"185 1227.167 OFFCURVE",
"245.833 1313.667 OFFCURVE",
"325.5 1375 CURVE SMOOTH",
"405.167 1436.333 OFFCURVE",
"500.667 1467 OFFCURVE",
"612 1467 CURVE SMOOTH",
"724 1467 OFFCURVE",
"819.5 1436.5 OFFCURVE",
"898.5 1375.5 CURVE SMOOTH",
"977.5 1314.5 OFFCURVE",
"1037.833 1228.333 OFFCURVE",
"1079.5 1117 CURVE SMOOTH",
"1121.167 1005.667 OFFCURVE",
"1142 874.333 OFFCURVE",
"1142 723 CURVE SMOOTH",
"1142 571 OFFCURVE",
"1121.167 439 OFFCURVE",
"1079.5 327 CURVE SMOOTH",
"1037.833 215 OFFCURVE",
"977.5 128.5 OFFCURVE",
"898.5 67.5 CURVE SMOOTH",
"819.5 6.5 OFFCURVE",
"724 -24 OFFCURVE",
"612 -24 CURVE SMOOTH",
"612 -24 LINE SMOOTH"
);
},
{
closed = 1;
nodes = (
"687.333 133 OFFCURVE",
"750.833 157.167 OFFCURVE",
"802.5 205.5 CURVE SMOOTH",
"854.167 253.833 OFFCURVE",
"893.5 322 OFFCURVE",
"920.5 410 CURVE SMOOTH",
"947.5 498 OFFCURVE",
"961 602 OFFCURVE",
"961 722 CURVE SMOOTH",
"961 840.667 OFFCURVE",
"947.333 943.833 OFFCURVE",
"920 1031.5 CURVE SMOOTH",
"892.667 1119.167 OFFCURVE",
"853.167 1187.333 OFFCURVE",
"801.5 1236 CURVE SMOOTH",
"749.833 1284.667 OFFCURVE",
"686.667 1309 OFFCURVE",
"612 1309 CURVE SMOOTH",
"537.333 1309 OFFCURVE",
"474 1284.667 OFFCURVE",
"422 1236 CURVE SMOOTH",
"370 1187.333 OFFCURVE",
"330.167 1119 OFFCURVE",
"302.5 1031 CURVE SMOOTH",
"274.833 943 OFFCURVE",
"261 840.333 OFFCURVE",
"261 723 CURVE SMOOTH",
"261 603 OFFCURVE",
"274.5 498.833 OFFCURVE",
"301.5 410.5 CURVE SMOOTH",
"328.5 322.167 OFFCURVE",
"368.167 253.833 OFFCURVE",
"420.5 205.5 CURVE SMOOTH",
"472.833 157.167 OFFCURVE",
"536.667 133 OFFCURVE",
"612 133 CURVE",
"612 133 LINE"
);
}
);
width = 1222;
}
);
note = zero;
unicode = 0030;
},
{
glyphname = one;
layers = (
{
layerId = "EC0A993D-47FA-4182-AC72-4A7420448146";
paths = (
{
closed = 1;
nodes = (
"449 0 OFFCURVE",
"436 13 OFFCURVE",
"436 39 CURVE SMOOTH",
"436 1255 LINE",
"436 1255 LINE",
"384.667 1219 OFFCURVE",
"330 1180.167 OFFCURVE",
"272 1138.5 CURVE SMOOTH",
"214 1096.833 OFFCURVE",
"155.667 1055.333 OFFCURVE",
"97 1014 CURVE",
"87 1006 OFFCURVE",
"76.667 1004.167 OFFCURVE",
"66 1008.5 CURVE SMOOTH",
"55.333 1012.833 OFFCURVE",
"50 1021.333 OFFCURVE",
"50 1034 CURVE SMOOTH",
"50 1131 LINE SMOOTH",
"50 1145.667 OFFCURVE",
"51.833 1157.167 OFFCURVE",
"55.5 1165.5 CURVE SMOOTH",
"59.167 1173.833 OFFCURVE",
"66.667 1182 OFFCURVE",
"78 1190 CURVE SMOOTH",
"128.667 1226 OFFCURVE",
"183 1264.667 OFFCURVE",
"241 1306 CURVE SMOOTH",
"299 1347.333 OFFCURVE",
"353 1385.667 OFFCURVE",
"403 1421 CURVE SMOOTH",
"414.333 1429 OFFCURVE",
"424.833 1434.667 OFFCURVE",
"434.5 1438 CURVE SMOOTH",
"444.167 1441.333 OFFCURVE",
"457 1443 OFFCURVE",
"473 1443 CURVE SMOOTH",
"571 1443 LINE SMOOTH",
"597 1443 OFFCURVE",
"610 1430 OFFCURVE",
"610 1404 CURVE SMOOTH",
"610 39 LINE SMOOTH",
"610 13 OFFCURVE",
"597 0 OFFCURVE",
"571 0 CURVE SMOOTH",
"475 0 LINE",
"475 0 LINE SMOOTH"
);
}
);
width = 755;
}
);
note = one;
unicode = 0031;
},
{
glyphname = two;
layers = (
{
layerId = "EC0A993D-47FA-4182-AC72-4A7420448146";
paths = (
{
closed = 1;
nodes = (
"112 0 OFFCURVE",
"99 13 OFFCURVE",
"99 39 CURVE SMOOTH",
"99 85 LINE SMOOTH",
"99 98.333 OFFCURVE",
"100.833 110 OFFCURVE",
"104.5 120 CURVE SMOOTH",
"108.167 130 OFFCURVE",
"116.333 141.667 OFFCURVE",
"129 155 CURVE SMOOTH",
"607 654 LINE SMOOTH",
"672.333 722 OFFCURVE",
"722.167 778.167 OFFCURVE",
"756.5 822.5 CURVE SMOOTH",
"790.833 866.833 OFFCURVE",
"814.5 906.333 OFFCURVE",
"827.5 941 CURVE SMOOTH",
"840.5 975.667 OFFCURVE",
"847 1012.333 OFFCURVE",
"847 1051 CURVE SMOOTH",
"847 1102.333 OFFCURVE",
"835 1147.333 OFFCURVE",
"811 1186 CURVE SMOOTH",
"787 1224.667 OFFCURVE",
"754.167 1255 OFFCURVE",
"712.5 1277 CURVE SMOOTH",
"670.833 1299 OFFCURVE",
"622.667 1310 OFFCURVE",
"568 1310 CURVE SMOOTH",
"513.333 1310 OFFCURVE",
"464.167 1298.833 OFFCURVE",
"420.5 1276.5 CURVE SMOOTH",
"376.833 1254.167 OFFCURVE",
"341.5 1224.5 OFFCURVE",
"314.5 1187.5 CURVE SMOOTH",
"287.5 1150.5 OFFCURVE",
"271.667 1110 OFFCURVE",
"267 1066 CURVE SMOOTH",
"263.667 1039.333 OFFCURVE",
"250.667 1026 OFFCURVE",
"228 1026 CURVE SMOOTH",
"128 1026 LINE SMOOTH",
"100.667 1026 OFFCURVE",
"88.333 1039.333 OFFCURVE",
"91 1066 CURVE SMOOTH",
"97.667 1142 OFFCURVE",
"122.833 1210.333 OFFCURVE",
"166.5 1271 CURVE SMOOTH",
"210.167 1331.667 OFFCURVE",
"267.167 1379.5 OFFCURVE",
"337.5 1414.5 CURVE SMOOTH",
"407.833 1449.5 OFFCURVE",
"485.667 1467 OFFCURVE",
"571 1467 CURVE SMOOTH",
"659.667 1467 OFFCURVE",
"738.167 1449.167 OFFCURVE",
"806.5 1413.5 CURVE SMOOTH",
"874.833 1377.833 OFFCURVE",
"928.667 1329.5 OFFCURVE",
"968 1268.5 CURVE SMOOTH",
"1007.333 1207.5 OFFCURVE",
"1027 1138.333 OFFCURVE",
"1027 1061 CURVE SMOOTH",
"1027 1009.667 OFFCURVE",
"1018.167 959.833 OFFCURVE",
"1000.5 911.5 CURVE SMOOTH",
"982.833 863.167 OFFCURVE",
"951.5 809.5 OFFCURVE",
"906.5 750.5 CURVE SMOOTH",
"861.5 691.5 OFFCURVE",
"798.333 620.333 OFFCURVE",
"717 537 CURVE SMOOTH",
"350 160 LINE",
"350 160 LINE",
"1012 160 LINE SMOOTH",
"1038 160 OFFCURVE",
"1051 147 OFFCURVE",
"1051 121 CURVE SMOOTH",
"1051 39 LINE SMOOTH",
"1051 13 OFFCURVE",
"1038 0 OFFCURVE",
"1012 0 CURVE SMOOTH",
"138 0 LINE",
"138 0 LINE SMOOTH"
);
}
);
width = 1121;
}
);
note = two;
unicode = 0032;
},
{
glyphname = three;
layers = (
{
layerId = "EC0A993D-47FA-4182-AC72-4A7420448146";
paths = (
{
closed = 1;
nodes = (
"498.333 -24 OFFCURVE",
"413.667 -8 OFFCURVE",
"341 24 CURVE SMOOTH",
"268.333 56 OFFCURVE",
"210.333 99.667 OFFCURVE",
"167 155 CURVE SMOOTH",
"123.667 210.333 OFFCURVE",
"97.333 273 OFFCURVE",
"88 343 CURVE SMOOTH",
"86 355.667 OFFCURVE",
"88 365.333 OFFCURVE",
"94 372 CURVE SMOOTH",
"100 378.667 OFFCURVE",
"109.333 382 OFFCURVE",
"122 382 CURVE SMOOTH",
"222 382 LINE SMOOTH",
"233.333 382 OFFCURVE",
"242.167 379 OFFCURVE",
"248.5 373 CURVE SMOOTH",
"254.833 367 OFFCURVE",
"260 357 OFFCURVE",
"264 343 CURVE",
"272.667 303 OFFCURVE",
"291.333 267 OFFCURVE",
"320 235 CURVE SMOOTH",
"348.667 203 OFFCURVE",
"386.333 177.833 OFFCURVE",
"433 159.5 CURVE SMOOTH",
"479.667 141.167 OFFCURVE",
"533.667 132 OFFCURVE",
"595 132 CURVE SMOOTH",
"658.333 132 OFFCURVE",
"713.833 142.667 OFFCURVE",
"761.5 164 CURVE SMOOTH",
"809.167 185.333 OFFCURVE",
"846.333 215.833 OFFCURVE",
"873 255.5 CURVE SMOOTH",
"899.667 295.167 OFFCURVE",
"913 342 OFFCURVE",
"913 396 CURVE SMOOTH",
"913 481.333 OFFCURVE",
"883.5 548.167 OFFCURVE",
"824.5 596.5 CURVE SMOOTH",
"765.5 644.833 OFFCURVE",
"685.333 669 OFFCURVE",
"584 669 CURVE SMOOTH",
"442 669 LINE SMOOTH",
"416 669 OFFCURVE",
"403 682 OFFCURVE",
"403 708 CURVE SMOOTH",
"403 782 LINE SMOOTH",
"403 808 OFFCURVE",
"416 821 OFFCURVE",
"442 821 CURVE SMOOTH",
"576 821 LINE SMOOTH",
"633.333 821 OFFCURVE",
"684 832 OFFCURVE",
"728 854 CURVE SMOOTH",
"772 876 OFFCURVE",
"806.333 906.5 OFFCURVE",
"831 945.5 CURVE SMOOTH",
"855.667 984.5 OFFCURVE",
"868 1029.333 OFFCURVE",
"868 1080 CURVE SMOOTH",
"868 1128 OFFCURVE",
"857 1169.333 OFFCURVE",
"835 1204 CURVE SMOOTH",
"813 1238.667 OFFCURVE",
"781.333 1265.167 OFFCURVE",
"740 1283.5 CURVE SMOOTH",
"698.667 1301.833 OFFCURVE",
"648.667 1311 OFFCURVE",
"590 1311 CURVE SMOOTH",
"535.333 1311 OFFCURVE",
"487.333 1302.333 OFFCURVE",
"446 1285 CURVE SMOOTH",
"404.667 1267.667 OFFCURVE",
"370.833 1243.5 OFFCURVE",
"344.5 1212.5 CURVE SMOOTH",
"318.167 1181.5 OFFCURVE",
"300.667 1145.333 OFFCURVE",
"292 1104 CURVE",
"285.333 1078 OFFCURVE",
"271.333 1065 OFFCURVE",
"250 1065 CURVE SMOOTH",
"153 1065 LINE SMOOTH",
"125.667 1065 OFFCURVE",
"114 1078 OFFCURVE",
"118 1104 CURVE SMOOTH",
"129.333 1175.333 OFFCURVE",
"155.833 1238.167 OFFCURVE",
"197.5 1292.5 CURVE SMOOTH",
"239.167 1346.833 OFFCURVE",
"293.5 1389.5 OFFCURVE",
"360.5 1420.5 CURVE SMOOTH",
"427.5 1451.5 OFFCURVE",
"505 1467 OFFCURVE",
"593 1467 CURVE SMOOTH",
"685 1467 OFFCURVE",
"765.167 1451.167 OFFCURVE",
"833.5 1419.5 CURVE SMOOTH",
"901.833 1387.833 OFFCURVE",
"954.833 1344.167 OFFCURVE",
"992.5 1288.5 CURVE SMOOTH",
"1030.167 1232.833 OFFCURVE",
"1049 1168.333 OFFCURVE",
"1049 1095 CURVE SMOOTH",
"1049 1023 OFFCURVE",
"1031.333 959.5 OFFCURVE",
"996 904.5 CURVE SMOOTH",
"960.667 849.5 OFFCURVE",
"911.167 806.333 OFFCURVE",
"847.5 775 CURVE SMOOTH",
"783.833 743.667 OFFCURVE",
"709 728 OFFCURVE",
"623 728 CURVE",
"625 789 LINE",
"715.667 789 OFFCURVE",
"796.5 772 OFFCURVE",
"867.5 738 CURVE SMOOTH",
"938.5 704 OFFCURVE",
"994.333 657.333 OFFCURVE",
"1035 598 CURVE SMOOTH",
"1075.667 538.667 OFFCURVE",
"1096 471 OFFCURVE",
"1096 395 CURVE SMOOTH",
"1096 315 OFFCURVE",
"1074.333 243.333 OFFCURVE",
"1031 180 CURVE SMOOTH",
"987.667 116.667 OFFCURVE",
"928.333 66.833 OFFCURVE",
"853 30.5 CURVE SMOOTH",
"777.667 -5.833 OFFCURVE",
"691.667 -24 OFFCURVE",
"595 -24 CURVE SMOOTH",
"595 -24 LINE SMOOTH"
);
}
);
width = 1171;
}
);
note = three;
unicode = 0033;
},
{
glyphname = four;
layers = (
{
layerId = "EC0A993D-47FA-4182-AC72-4A7420448146";
paths = (
{
closed = 1;
nodes = (
"788 0 OFFCURVE",
"775 13 OFFCURVE",
"775 39 CURVE SMOOTH",
"775 300 LINE",
"89 300 LINE SMOOTH",
"63 300 OFFCURVE",
"50 313 OFFCURVE",
"50 339 CURVE SMOOTH",
"50 437 LINE SMOOTH",
"50 448.333 OFFCURVE",
"51.167 458.333 OFFCURVE",
"53.5 467 CURVE SMOOTH",
"55.833 475.667 OFFCURVE",
"60.333 485.333 OFFCURVE",
"67 496 CURVE SMOOTH",
"112.333 573.333 OFFCURVE",
"162.167 656.333 OFFCURVE",
"216.5 745 CURVE SMOOTH",
"270.833 833.667 OFFCURVE",
"334 932.333 OFFCURVE",
"406 1041 CURVE SMOOTH",
"478 1149.667 OFFCURVE",
"563 1272.667 OFFCURVE",
"661 1410 CURVE SMOOTH",
"677 1432 OFFCURVE",
"696 1443 OFFCURVE",
"718 1443 CURVE SMOOTH",
"910 1443 LINE SMOOTH",
"936 1443 OFFCURVE",
"949 1430 OFFCURVE",
"949 1404 CURVE SMOOTH",
"949 458 LINE",
"1114 458 LINE SMOOTH",
"1140 458 OFFCURVE",
"1153 445 OFFCURVE",
"1153 419 CURVE SMOOTH",
"1153 339 LINE SMOOTH",
"1153 313 OFFCURVE",
"1140.667 300 OFFCURVE",
"1116 300 CURVE SMOOTH",
"949 300 LINE",
"949 39 LINE SMOOTH",
"949 13 OFFCURVE",
"936 0 OFFCURVE",
"910 0 CURVE SMOOTH",
"814 0 LINE",
"814 0 LINE SMOOTH"
);
},
{
closed = 1;
nodes = (
"226 458 LINE",
"226 458 LINE",
"775 458 LINE",
"775 1298 LINE",
"775 1298 LINE",
"692.333 1179.333 OFFCURVE",
"617.667 1070.167 OFFCURVE",
"551 970.5 CURVE SMOOTH",
"484.333 870.833 OFFCURVE",
"424.167 779 OFFCURVE",
"370.5 695 CURVE SMOOTH",
"316.833 611 OFFCURVE",
"268.667 532 OFFCURVE",
"226 458 CURVE"
);
}
);
width = 1183;
}
);
note = four;
unicode = 0034;
},
{
glyphname = five;
layers = (
{
layerId = "EC0A993D-47FA-4182-AC72-4A7420448146";
paths = (
{
closed = 1;
nodes = (
"489.667 -24 OFFCURVE",
"410 -7.5 OFFCURVE",
"340 25.5 CURVE SMOOTH",
"270 58.5 OFFCURVE",
"213.333 103.667 OFFCURVE",
"170 161 CURVE SMOOTH",
"126.667 218.333 OFFCURVE",
"99.667 283 OFFCURVE",
"89 355 CURVE SMOOTH",
"87 367.667 OFFCURVE",
"88.833 377.333 OFFCURVE",
"94.5 384 CURVE SMOOTH",
"100.167 390.667 OFFCURVE",
"109.667 394 OFFCURVE",
"123 394 CURVE SMOOTH",
"227 394 LINE SMOOTH",
"237.667 394 OFFCURVE",
"246.333 391.167 OFFCURVE",
"253 385.5 CURVE SMOOTH",
"259.667 379.833 OFFCURVE",
"265 369.667 OFFCURVE",
"269 355 CURVE",
"277.667 315.667 OFFCURVE",
"296 279.333 OFFCURVE",
"324 246 CURVE SMOOTH",
"352 212.667 OFFCURVE",
"387.833 185.667 OFFCURVE",
"431.5 165 CURVE SMOOTH",
"475.167 144.333 OFFCURVE",
"525 134 OFFCURVE",
"581 134 CURVE SMOOTH",
"646.333 134 OFFCURVE",
"704 148 OFFCURVE",
"754 176 CURVE SMOOTH",
"804 204 OFFCURVE",
"843 243 OFFCURVE",
"871 293 CURVE SMOOTH",
"899 343 OFFCURVE",
"913 400.667 OFFCURVE",
"913 466 CURVE SMOOTH",
"913 529.333 OFFCURVE",
"898.833 585.5 OFFCURVE",
"870.5 634.5 CURVE SMOOTH",
"842.167 683.5 OFFCURVE",
"803.333 722 OFFCURVE",
"754 750 CURVE SMOOTH",
"704.667 778 OFFCURVE",
"648 792 OFFCURVE",
"584 792 CURVE SMOOTH",
"522 792 OFFCURVE",
"466 780.5 OFFCURVE",
"416 757.5 CURVE SMOOTH",
"366 734.5 OFFCURVE",
"324.333 699 OFFCURVE",
"291 651 CURVE SMOOTH",
"275.667 630.333 OFFCURVE",
"257.667 620 OFFCURVE",
"237 620 CURVE SMOOTH",
"151 620 LINE SMOOTH",
"123.667 620 OFFCURVE",
"111.333 633 OFFCURVE",
"114 659 CURVE SMOOTH",
"181 1396 LINE SMOOTH",
"183.667 1427.333 OFFCURVE",
"199.667 1443 OFFCURVE",
"229 1443 CURVE SMOOTH",
"972 1443 LINE SMOOTH",
"998 1443 OFFCURVE",
"1011 1430 OFFCURVE",
"1011 1404 CURVE SMOOTH",
"1011 1322 LINE SMOOTH",
"1011 1296 OFFCURVE",
"998 1283 OFFCURVE",
"972 1283 CURVE SMOOTH",
"333 1283 LINE",
"281 780 LINE",
"256 793 LINE",
"298.667 841 OFFCURVE",
"350.667 878.667 OFFCURVE",
"412 906 CURVE SMOOTH",
"473.333 933.333 OFFCURVE",
"540 947 OFFCURVE",
"612 947 CURVE SMOOTH",
"706 947 OFFCURVE",
"789.167 926.333 OFFCURVE",
"861.5 885 CURVE SMOOTH",
"933.833 843.667 OFFCURVE",
"990.5 787.167 OFFCURVE",
"1031.5 715.5 CURVE SMOOTH",
"1072.5 643.833 OFFCURVE",
"1093 561.667 OFFCURVE",
"1093 469 CURVE SMOOTH",
"1093 372.333 OFFCURVE",
"1071 286.833 OFFCURVE",
"1027 212.5 CURVE SMOOTH",
"983 138.167 OFFCURVE",
"922.333 80.167 OFFCURVE",
"845 38.5 CURVE SMOOTH",
"767.667 -3.167 OFFCURVE",
"679 -24 OFFCURVE",
"579 -24 CURVE SMOOTH",
"579 -24 LINE SMOOTH"
);
}
);
width = 1153;
}
);
note = five;
unicode = 0035;
},
{
glyphname = six;
layers = (
{
layerId = "EC0A993D-47FA-4182-AC72-4A7420448146";
paths = (
{
closed = 1;
nodes = (
"524.667 -25 OFFCURVE",
"436 -0.5 OFFCURVE",
"360 48.5 CURVE SMOOTH",
"284 97.5 OFFCURVE",
"224.667 160.667 OFFCURVE",
"182 238 CURVE SMOOTH",
"145.333 303.333 OFFCURVE",
"119.167 373.667 OFFCURVE",
"103.5 449 CURVE SMOOTH",
"87.833 524.333 OFFCURVE",
"80 606.667 OFFCURVE",
"80 696 CURVE SMOOTH",
"80 858 OFFCURVE",
"102.167 996.5 OFFCURVE",
"146.5 1111.5 CURVE SMOOTH",
"190.833 1226.5 OFFCURVE",
"254.833 1314.5 OFFCURVE",
"338.5 1375.5 CURVE SMOOTH",
"422.167 1436.5 OFFCURVE",
"522.667 1467 OFFCURVE",
"640 1467 CURVE SMOOTH",
"759.333 1467 OFFCURVE",
"860 1436.667 OFFCURVE",
"942 1376 CURVE SMOOTH",
"1024 1315.333 OFFCURVE",
"1078.667 1235.333 OFFCURVE",
"1106 1136 CURVE",
"1110 1123.333 OFFCURVE",
"1109 1113.167 OFFCURVE",
"1103 1105.5 CURVE SMOOTH",
"1097 1097.833 OFFCURVE",
"1087.667 1094 OFFCURVE",
"1075 1094 CURVE SMOOTH",
"974 1094 LINE SMOOTH",
"960 1094 OFFCURVE",
"948.833 1097 OFFCURVE",
"940.5 1103 CURVE SMOOTH",
"932.167 1109 OFFCURVE",
"925 1119 OFFCURVE",
"919 1133 CURVE SMOOTH",
"896.333 1187 OFFCURVE",
"861.5 1229.667 OFFCURVE",
"814.5 1261 CURVE SMOOTH",
"767.5 1292.333 OFFCURVE",
"708.667 1308 OFFCURVE",
"638 1308 CURVE SMOOTH",
"548.667 1308 OFFCURVE",
"476 1281.667 OFFCURVE",
"420 1229 CURVE SMOOTH",
"364 1176.333 OFFCURVE",
"322.833 1105 OFFCURVE",
"296.5 1015 CURVE SMOOTH",
"270.167 925 OFFCURVE",
"256 824 OFFCURVE",
"254 712 CURVE",
"254 712 LINE",
"275.333 758.667 OFFCURVE",
"305.667 799.333 OFFCURVE",
"345 834 CURVE SMOOTH",
"384.333 868.667 OFFCURVE",
"430.833 895.833 OFFCURVE",
"484.5 915.5 CURVE SMOOTH",
"538.167 935.167 OFFCURVE",
"596.667 945 OFFCURVE",
"660 945 CURVE SMOOTH",
"751.333 945 OFFCURVE",
"833.167 924.333 OFFCURVE",
"905.5 883 CURVE SMOOTH",
"977.833 841.667 OFFCURVE",
"1034.833 785.167 OFFCURVE",
"1076.5 713.5 CURVE SMOOTH",
"1118.167 641.833 OFFCURVE",
"1139 560.667 OFFCURVE",
"1139 470 CURVE SMOOTH",
"1139 375.333 OFFCURVE",
"1116.833 290.667 OFFCURVE",
"1072.5 216 CURVE SMOOTH",
"1028.167 141.333 OFFCURVE",
"967.333 82.5 OFFCURVE",
"890 39.5 CURVE SMOOTH",
"812.667 -3.5 OFFCURVE",
"724.667 -25 OFFCURVE",
"626 -25 CURVE SMOOTH",
"626 -25 LINE SMOOTH"
);
},
{
closed = 1;
nodes = (
"686 135 OFFCURVE",
"742.167 149.667 OFFCURVE",
"792.5 179 CURVE SMOOTH",
"842.833 208.333 OFFCURVE",
"882.667 247.833 OFFCURVE",
"912 297.5 CURVE SMOOTH",
"941.333 347.167 OFFCURVE",
"956 402.667 OFFCURVE",
"956 464 CURVE SMOOTH",
"956 526 OFFCURVE",
"942 581.333 OFFCURVE",
"914 630 CURVE SMOOTH",
"886 678.667 OFFCURVE",
"847.333 717 OFFCURVE",
"798 745 CURVE SMOOTH",
"748.667 773 OFFCURVE",
"691.333 787 OFFCURVE",
"626 787 CURVE SMOOTH",
"564 787 OFFCURVE",
"508.167 773.167 OFFCURVE",
"458.5 745.5 CURVE SMOOTH",
"408.833 717.833 OFFCURVE",
"369.5 680.167 OFFCURVE",
"340.5 632.5 CURVE SMOOTH",
"311.5 584.833 OFFCURVE",
"297 531 OFFCURVE",
"297 471 CURVE SMOOTH",
"297 408.333 OFFCURVE",
"311.5 351.667 OFFCURVE",
"340.5 301 CURVE SMOOTH",
"369.5 250.333 OFFCURVE",
"408.667 210 OFFCURVE",
"458 180 CURVE SMOOTH",
"507.333 150 OFFCURVE",
"562.667 135 OFFCURVE",
"624 135 CURVE",
"624 135 LINE"
);
}
);
width = 1214;
}
);
note = six;
unicode = 0036;
},
{
glyphname = seven;
layers = (
{
layerId = "EC0A993D-47FA-4182-AC72-4A7420448146";
paths = (
{
closed = 1;
nodes = (
"213 0 OFFCURVE",
"203.667 4.167 OFFCURVE",
"199 12.5 CURVE SMOOTH",
"194.333 20.833 OFFCURVE",
"195 31.667 OFFCURVE",
"201 45 CURVE",
"834 1283 LINE",
"834 1283 LINE",
"94 1283 LINE SMOOTH",
"68 1283 OFFCURVE",
"55 1296 OFFCURVE",
"55 1322 CURVE SMOOTH",
"55 1406 LINE SMOOTH",
"55 1430.667 OFFCURVE",
"68 1443 OFFCURVE",
"94 1443 CURVE SMOOTH",
"971 1443 LINE SMOOTH",
"997 1443 OFFCURVE",
"1010 1430 OFFCURVE",
"1010 1404 CURVE SMOOTH",
"1010 1307 LINE SMOOTH",
"1010 1295 OFFCURVE",
"1008.833 1284.667 OFFCURVE",
"1006.5 1276 CURVE SMOOTH",
"1004.167 1267.333 OFFCURVE",
"1000 1256.667 OFFCURVE",
"994 1244 CURVE SMOOTH",
"386 36 LINE SMOOTH",
"374 12 OFFCURVE",
"355 0 OFFCURVE",
"329 0 CURVE SMOOTH",
"227 0 LINE",
"227 0 LINE SMOOTH"
);
}
);
width = 1045;
}
);
note = seven;
unicode = 0037;
},
{
glyphname = eight;
layers = (
{
layerId = "EC0A993D-47FA-4182-AC72-4A7420448146";
paths = (
{
closed = 1;
nodes = (
"665.667 133 OFFCURVE",
"724.5 144.5 OFFCURVE",
"775.5 167.5 CURVE SMOOTH",
"826.5 190.5 OFFCURVE",
"866.667 222.333 OFFCURVE",
"896 263 CURVE SMOOTH",
"925.333 303.667 OFFCURVE",
"940 350.333 OFFCURVE",
"940 403 CURVE SMOOTH",
"940 455.667 OFFCURVE",
"925.5 502.333 OFFCURVE",
"896.5 543 CURVE SMOOTH",
"867.5 583.667 OFFCURVE",
"827.333 615.667 OFFCURVE",
"776 639 CURVE SMOOTH",
"724.667 662.333 OFFCURVE",
"665.667 674 OFFCURVE",
"599 674 CURVE SMOOTH",
"532.333 674 OFFCURVE",
"473.333 662.333 OFFCURVE",
"422 639 CURVE SMOOTH",
"370.667 615.667 OFFCURVE",
"330.5 583.667 OFFCURVE",
"301.5 543 CURVE SMOOTH",
"272.5 502.333 OFFCURVE",
"258 455.667 OFFCURVE",
"258 403 CURVE SMOOTH",
"258 350.333 OFFCURVE",
"272.667 303.667 OFFCURVE",
"302 263 CURVE SMOOTH",
"331.333 222.333 OFFCURVE",
"371.5 190.5 OFFCURVE",
"422.5 167.5 CURVE SMOOTH",
"473.5 144.5 OFFCURVE",
"532.333 133 OFFCURVE",
"599 133 CURVE",
"599 133 LINE"
);
},
{
closed = 1;
nodes = (
"657 832 OFFCURVE",
"708 842.167 OFFCURVE",
"752 862.5 CURVE SMOOTH",
"796 882.833 OFFCURVE",
"830.333 911 OFFCURVE",
"855 947 CURVE SMOOTH",
"879.667 983 OFFCURVE",
"892 1024.333 OFFCURVE",
"892 1071 CURVE SMOOTH",
"892 1118.333 OFFCURVE",
"879.667 1160.167 OFFCURVE",
"855 1196.5 CURVE SMOOTH",
"830.333 1232.833 OFFCURVE",
"796 1261.167 OFFCURVE",
"752 1281.5 CURVE SMOOTH",
"708 1301.833 OFFCURVE",
"657 1312 OFFCURVE",
"599 1312 CURVE SMOOTH",
"541 1312 OFFCURVE",
"490 1301.833 OFFCURVE",
"446 1281.5 CURVE SMOOTH",
"402 1261.167 OFFCURVE",
"367.667 1232.833 OFFCURVE",
"343 1196.5 CURVE SMOOTH",
"318.333 1160.167 OFFCURVE",
"306 1118.333 OFFCURVE",
"306 1071 CURVE SMOOTH",
"306 1024.333 OFFCURVE",
"318.333 983 OFFCURVE",
"343 947 CURVE SMOOTH",
"367.667 911 OFFCURVE",
"402 882.833 OFFCURVE",
"446 862.5 CURVE SMOOTH",
"490 842.167 OFFCURVE",
"541 832 OFFCURVE",
"599 832 CURVE",
"599 832 LINE"
);
},
{
closed = 1;
nodes = (
"497 -24 OFFCURVE",
"406.667 -6.333 OFFCURVE",
"328 29 CURVE SMOOTH",
"249.333 64.333 OFFCURVE",
"187.5 113.333 OFFCURVE",
"142.5 176 CURVE SMOOTH",
"97.5 238.667 OFFCURVE",
"75 310.667 OFFCURVE",
"75 392 CURVE SMOOTH",
"75 473.333 OFFCURVE",
"97.5 545.333 OFFCURVE",
"142.5 608 CURVE SMOOTH",
"187.5 670.667 OFFCURVE",
"249.333 719.667 OFFCURVE",
"328 755 CURVE SMOOTH",
"406.667 790.333 OFFCURVE",
"497 808 OFFCURVE",
"599 808 CURVE SMOOTH",
"701 808 OFFCURVE",
"791.333 790.333 OFFCURVE",
"870 755 CURVE SMOOTH",
"948.667 719.667 OFFCURVE",
"1010.5 670.667 OFFCURVE",
"1055.5 608 CURVE SMOOTH",
"1100.5 545.333 OFFCURVE",
"1123 473.333 OFFCURVE",
"1123 392 CURVE SMOOTH",
"1123 310.667 OFFCURVE",
"1100.5 238.667 OFFCURVE",
"1055.5 176 CURVE SMOOTH",
"1010.5 113.333 OFFCURVE",
"948.667 64.333 OFFCURVE",
"870 29 CURVE SMOOTH",
"791.333 -6.333 OFFCURVE",
"701 -24 OFFCURVE",
"599 -24 CURVE SMOOTH",
"599 -24 LINE SMOOTH"
);
},
{
closed = 1;
nodes = (
"508.333 705 OFFCURVE",
"427.333 721.5 OFFCURVE",
"356 754.5 CURVE SMOOTH",
"284.667 787.5 OFFCURVE",
"228.667 832.667 OFFCURVE",
"188 890 CURVE SMOOTH",
"147.333 947.333 OFFCURVE",
"127 1012.667 OFFCURVE",
"127 1086 CURVE SMOOTH",
"127 1159.333 OFFCURVE",
"147.333 1224.667 OFFCURVE",
"188 1282 CURVE SMOOTH",
"228.667 1339.333 OFFCURVE",
"284.667 1384.5 OFFCURVE",
"356 1417.5 CURVE SMOOTH",
"427.333 1450.5 OFFCURVE",
"508.333 1467 OFFCURVE",
"599 1467 CURVE SMOOTH",
"690.333 1467 OFFCURVE",
"771.5 1450.5 OFFCURVE",
"842.5 1417.5 CURVE SMOOTH",
"913.5 1384.5 OFFCURVE",
"969.333 1339.333 OFFCURVE",
"1010 1282 CURVE SMOOTH",
"1050.667 1224.667 OFFCURVE",
"1071 1159.333 OFFCURVE",
"1071 1086 CURVE SMOOTH",
"1071 1012.667 OFFCURVE",
"1050.667 947.333 OFFCURVE",
"1010 890 CURVE SMOOTH",
"969.333 832.667 OFFCURVE",
"913.5 787.5 OFFCURVE",
"842.5 754.5 CURVE SMOOTH",
"771.5 721.5 OFFCURVE",
"690.333 705 OFFCURVE",
"599 705 CURVE SMOOTH",
"599 705 LINE SMOOTH"
);
}
);
width = 1198;
}
);
note = eight;
unicode = 0038;
},
{
glyphname = nine;
layers = (
{
layerId = "EC0A993D-47FA-4182-AC72-4A7420448146";
paths = (
{
closed = 1;
nodes = (
"454.667 -25 OFFCURVE",
"354 5.333 OFFCURVE",
"272 66 CURVE SMOOTH",
"190 126.667 OFFCURVE",
"135.333 207 OFFCURVE",
"108 307 CURVE",
"104 319.667 OFFCURVE",
"105 329.667 OFFCURVE",
"111 337 CURVE SMOOTH",
"117 344.333 OFFCURVE",
"126.333 348 OFFCURVE",
"139 348 CURVE SMOOTH",
"240 348 LINE SMOOTH",
"254 348 OFFCURVE",
"265.167 345 OFFCURVE",
"273.5 339 CURVE SMOOTH",
"281.833 333 OFFCURVE",
"288.667 323.333 OFFCURVE",
"294 310 CURVE SMOOTH",
"317.333 255.333 OFFCURVE",
"352.5 212.333 OFFCURVE",
"399.5 181 CURVE SMOOTH",
"446.5 149.667 OFFCURVE",
"505.333 134 OFFCURVE",
"576 134 CURVE SMOOTH",
"666 134 OFFCURVE",
"738.833 160.5 OFFCURVE",
"794.5 213.5 CURVE SMOOTH",
"850.167 266.5 OFFCURVE",
"891.333 338 OFFCURVE",
"918 428 CURVE SMOOTH",
"944.667 518 OFFCURVE",
"958.667 618.667 OFFCURVE",
"960 730 CURVE",
"960 730 LINE",
"938.667 684 OFFCURVE",
"908.167 643.5 OFFCURVE",
"868.5 608.5 CURVE SMOOTH",
"828.833 573.5 OFFCURVE",
"782.333 546.167 OFFCURVE",
"729 526.5 CURVE SMOOTH",
"675.667 506.833 OFFCURVE",
"617.333 497 OFFCURVE",
"554 497 CURVE SMOOTH",
"462.667 497 OFFCURVE",
"380.833 517.667 OFFCURVE",
"308.5 559 CURVE SMOOTH",
"236.167 600.333 OFFCURVE",
"179.167 656.833 OFFCURVE",
"137.5 728.5 CURVE SMOOTH",
"95.833 800.167 OFFCURVE",
"75 881.333 OFFCURVE",
"75 972 CURVE SMOOTH",
"75 1067.333 OFFCURVE",
"97.167 1152.333 OFFCURVE",
"141.5 1227 CURVE SMOOTH",
"185.833 1301.667 OFFCURVE",
"246.667 1360.333 OFFCURVE",
"324 1403 CURVE SMOOTH",
"401.333 1445.667 OFFCURVE",
"489.333 1467 OFFCURVE",
"588 1467 CURVE SMOOTH",
"689.333 1467 OFFCURVE",
"778 1442.667 OFFCURVE",
"854 1394 CURVE SMOOTH",
"930 1345.333 OFFCURVE",
"989.333 1282 OFFCURVE",
"1032 1204 CURVE SMOOTH",
"1068.667 1138.667 OFFCURVE",
"1094.833 1068.5 OFFCURVE",
"1110.5 993.5 CURVE SMOOTH",
"1126.167 918.5 OFFCURVE",
"1134 836 OFFCURVE",
"1134 746 CURVE SMOOTH",
"1134 584 OFFCURVE",
"1111.833 445.5 OFFCURVE",
"1067.5 330.5 CURVE SMOOTH",
"1023.167 215.5 OFFCURVE",
"959.333 127.5 OFFCURVE",
"876 66.5 CURVE SMOOTH",
"792.667 5.5 OFFCURVE",
"692 -25 OFFCURVE",
"574 -25 CURVE SMOOTH",
"574 -25 LINE SMOOTH"
);
},
{
closed = 1;
nodes = (
"650 655 OFFCURVE",
"705.833 669 OFFCURVE",
"755.5 697 CURVE SMOOTH",
"805.167 725 OFFCURVE",
"844.5 762.833 OFFCURVE",
"873.5 810.5 CURVE SMOOTH",
"902.5 858.167 OFFCURVE",
"917 911.667 OFFCURVE",
"917 971 CURVE SMOOTH",
"917 1033.667 OFFCURVE",
"902.5 1090.5 OFFCURVE",
"873.5 1141.5 CURVE SMOOTH",
"844.5 1192.5 OFFCURVE",
"805.333 1232.833 OFFCURVE",
"756 1262.5 CURVE SMOOTH",
"706.667 1292.167 OFFCURVE",
"651.333 1307 OFFCURVE",
"590 1307 CURVE SMOOTH",
"528 1307 OFFCURVE",
"472 1292.333 OFFCURVE",
"422 1263 CURVE SMOOTH",
"372 1233.667 OFFCURVE",
"332.167 1194.167 OFFCURVE",
"302.5 1144.5 CURVE SMOOTH",
"272.833 1094.833 OFFCURVE",
"258 1039.333 OFFCURVE",
"258 978 CURVE SMOOTH",
"258 916 OFFCURVE",
"272 860.667 OFFCURVE",
"300 812 CURVE SMOOTH",
"328 763.333 OFFCURVE",
"366.833 725 OFFCURVE",
"416.5 697 CURVE SMOOTH",
"466.167 669 OFFCURVE",
"523.333 655 OFFCURVE",
"588 655 CURVE",
"588 655 LINE"
);
}
);
width = 1214;
}
);
note = nine;
unicode = 0039;
},
{
glyphname = "zero-deva";
layers = (
{
layerId = "EC0A993D-47FA-4182-AC72-4A7420448146";
paths = (
{
closed = 1;
nodes = (
"442 221 OFFCURVE",
"364.167 240.833 OFFCURVE",
"294.5 280.5 CURVE SMOOTH",
"224.833 320.167 OFFCURVE",
"169.667 375.167 OFFCURVE",
"129 445.5 CURVE SMOOTH",
"88.333 515.833 OFFCURVE",
"68 597.333 OFFCURVE",
"68 690 CURVE SMOOTH",
"68 782.667 OFFCURVE",
"88.333 864 OFFCURVE",
"129 934 CURVE SMOOTH",
"169.667 1004 OFFCURVE",
"224.667 1058.833 OFFCURVE",
"294 1098.5 CURVE SMOOTH",
"363.333 1138.167 OFFCURVE",
"441.333 1158 OFFCURVE",
"528 1158 CURVE SMOOTH",
"614.667 1158 OFFCURVE",
"692.833 1138.167 OFFCURVE",
"762.5 1098.5 CURVE SMOOTH",
"832.167 1058.833 OFFCURVE",
"887.333 1004 OFFCURVE",
"928 934 CURVE SMOOTH",
"968.667 864 OFFCURVE",
"989 782.667 OFFCURVE",
"989 690 CURVE SMOOTH",
"989 598 OFFCURVE",
"968.667 516.667 OFFCURVE",
"928 446 CURVE SMOOTH",
"887.333 375.333 OFFCURVE",
"832.167 320.167 OFFCURVE",
"762.5 280.5 CURVE SMOOTH",
"692.833 240.833 OFFCURVE",
"614.667 221 OFFCURVE",
"528 221 CURVE SMOOTH",
"528 221 LINE SMOOTH"
);
},
{
closed = 1;
nodes = (
"583.333 381 OFFCURVE",
"632 393.833 OFFCURVE",
"674 419.5 CURVE SMOOTH",
"716 445.167 OFFCURVE",
"748.667 481.167 OFFCURVE",
"772 527.5 CURVE SMOOTH",
"795.333 573.833 OFFCURVE",
"807 627.667 OFFCURVE",
"807 689 CURVE SMOOTH",
"807 751.667 OFFCURVE",
"795.333 806.167 OFFCURVE",
"772 852.5 CURVE SMOOTH",
"748.667 898.833 OFFCURVE",
"716 934.667 OFFCURVE",
"674 960 CURVE SMOOTH",
"632 985.333 OFFCURVE",
"583.333 998 OFFCURVE",
"528 998 CURVE SMOOTH",
"473.333 998 OFFCURVE",
"425 985.333 OFFCURVE",
"383 960 CURVE SMOOTH",
"341 934.667 OFFCURVE",
"308.333 899 OFFCURVE",
"285 853 CURVE SMOOTH",
"261.667 807 OFFCURVE",
"250 752.667 OFFCURVE",
"250 690 CURVE SMOOTH",
"250 627.333 OFFCURVE",
"261.667 572.833 OFFCURVE",
"285 526.5 CURVE SMOOTH",
"308.333 480.167 OFFCURVE",
"341 444.333 OFFCURVE",
"383 419 CURVE SMOOTH",
"425 393.667 OFFCURVE",
"473.333 381 OFFCURVE",
"528 381 CURVE",
"528 381 LINE"
);
}
);
width = 1057;
}
);
note = "zero-deva";
unicode = 0966;
},
{
glyphname = "one-deva";
layers = (
{
layerId = "EC0A993D-47FA-4182-AC72-4A7420448146";
paths = (
{
closed = 1;
nodes = (
"506.333 -24 OFFCURVE",
"494.833 -21.667 OFFCURVE",
"486.5 -17 CURVE SMOOTH",
"478.167 -12.333 OFFCURVE",
"468 -3 OFFCURVE",
"456 11 CURVE SMOOTH",
"130 393 LINE SMOOTH",
"116 409.667 OFFCURVE",
"107 422.667 OFFCURVE",
"103 432 CURVE SMOOTH",
"99 441.333 OFFCURVE",
"97 454.333 OFFCURVE",
"97 471 CURVE SMOOTH",
"97 520 LINE SMOOTH",
"97 542.667 OFFCURVE",
"110 556 OFFCURVE",
"136 560 CURVE SMOOTH",
"244 575.333 OFFCURVE",
"334.167 594.667 OFFCURVE",
"406.5 618 CURVE SMOOTH",
"478.833 641.333 OFFCURVE",
"537.167 667.667 OFFCURVE",
"581.5 697 CURVE SMOOTH",
"625.833 726.333 OFFCURVE",
"659.5 758.667 OFFCURVE",
"682.5 794 CURVE SMOOTH",
"705.5 829.333 OFFCURVE",
"721.333 867 OFFCURVE",
"730 907 CURVE",
"746 907 LINE",
"737.333 869.667 OFFCURVE",
"719.167 836.667 OFFCURVE",
"691.5 808 CURVE SMOOTH",
"663.833 779.333 OFFCURVE",
"628.667 757 OFFCURVE",
"586 741 CURVE SMOOTH",
"543.333 725 OFFCURVE",
"495.333 717 OFFCURVE",
"442 717 CURVE SMOOTH",
"369.333 717 OFFCURVE",
"304.667 732.5 OFFCURVE",
"248 763.5 CURVE SMOOTH",
"191.333 794.5 OFFCURVE",
"146.833 837.167 OFFCURVE",
"114.5 891.5 CURVE SMOOTH",
"82.167 945.833 OFFCURVE",
"66 1008 OFFCURVE",
"66 1078 CURVE SMOOTH",
"66 1152.667 OFFCURVE",
"84.167 1219.333 OFFCURVE",
"120.5 1278 CURVE SMOOTH",
"156.833 1336.667 OFFCURVE",
"206 1383 OFFCURVE",
"268 1417 CURVE SMOOTH",
"330 1451 OFFCURVE",
"400 1468 OFFCURVE",
"478 1468 CURVE SMOOTH",
"560 1468 OFFCURVE",
"632.5 1449.5 OFFCURVE",
"695.5 1412.5 CURVE SMOOTH",
"758.5 1375.5 OFFCURVE",
"808 1323.333 OFFCURVE",
"844 1256 CURVE SMOOTH",
"880 1188.667 OFFCURVE",
"898 1108.667 OFFCURVE",
"898 1016 CURVE SMOOTH",
"898 929.333 OFFCURVE",
"882.5 851.5 OFFCURVE",
"851.5 782.5 CURVE SMOOTH",
"820.5 713.5 OFFCURVE",
"775.667 653.5 OFFCURVE",
"717 602.5 CURVE SMOOTH",
"658.333 551.5 OFFCURVE",
"587.5 509.5 OFFCURVE",
"504.5 476.5 CURVE SMOOTH",
"421.5 443.5 OFFCURVE",
"327.667 419.333 OFFCURVE",
"223 404 CURVE",
"223 520 LINE",
"669 25 LINE SMOOTH",
"679 13.667 OFFCURVE",
"682.167 2.667 OFFCURVE",
"678.5 -8 CURVE SMOOTH",
"674.833 -18.667 OFFCURVE",
"665.667 -24 OFFCURVE",
"651 -24 CURVE SMOOTH",
"521 -24 LINE",
"521 -24 LINE SMOOTH"
);
},
{
closed = 1;
nodes = (
"524.333 845 OFFCURVE",
"564.667 854.833 OFFCURVE",
"600 874.5 CURVE SMOOTH",
"635.333 894.167 OFFCURVE",
"663.167 921.167 OFFCURVE",
"683.5 955.5 CURVE SMOOTH",
"703.833 989.833 OFFCURVE",
"714 1029 OFFCURVE",
"714 1073 CURVE SMOOTH",
"714 1117 OFFCURVE",
"703.833 1156.833 OFFCURVE",
"683.5 1192.5 CURVE SMOOTH",
"663.167 1228.167 OFFCURVE",
"635.5 1256.333 OFFCURVE",
"600.5 1277 CURVE SMOOTH",
"565.5 1297.667 OFFCURVE",
"526 1308 OFFCURVE",
"482 1308 CURVE SMOOTH",
"438.667 1308 OFFCURVE",
"399.167 1297.667 OFFCURVE",
"363.5 1277 CURVE SMOOTH",
"327.833 1256.333 OFFCURVE",
"299.667 1228.333 OFFCURVE",
"279 1193 CURVE SMOOTH",
"258.333 1157.667 OFFCURVE",
"248 1117.333 OFFCURVE",
"248 1072 CURVE SMOOTH",
"248 1028.667 OFFCURVE",
"257.833 989.833 OFFCURVE",
"277.5 955.5 CURVE SMOOTH",
"297.167 921.167 OFFCURVE",
"324.333 894.167 OFFCURVE",
"359 874.5 CURVE SMOOTH",
"393.667 854.833 OFFCURVE",
"433.667 845 OFFCURVE",
"479 845 CURVE",
"479 845 LINE"
);
}
);
width = 952;
}
);
note = "one-deva";
unicode = 0967;
},
{
glyphname = "two-deva";
layers = (
{
layerId = "EC0A993D-47FA-4182-AC72-4A7420448146";
paths = (
{
closed = 1;
nodes = (
"505.667 -24 OFFCURVE",
"486 -11 OFFCURVE",
"470 15 CURVE SMOOTH",
"76 660 LINE SMOOTH",
"68 673.333 OFFCURVE",
"67 684.667 OFFCURVE",
"73 694 CURVE SMOOTH",
"79 703.333 OFFCURVE",
"88.333 708 OFFCURVE",
"101 708 CURVE SMOOTH",
"208 708 LINE SMOOTH",
"219.333 708 OFFCURVE",
"228.833 706.167 OFFCURVE",
"236.5 702.5 CURVE SMOOTH",
"244.167 698.833 OFFCURVE",
"253.667 693 OFFCURVE",
"265 685 CURVE",
"295 661.667 OFFCURVE",
"330.5 641.667 OFFCURVE",
"371.5 625 CURVE SMOOTH",
"412.5 608.333 OFFCURVE",
"461.333 600 OFFCURVE",
"518 600 CURVE SMOOTH",
"583.333 600 OFFCURVE",
"640 614 OFFCURVE",
"688 642 CURVE SMOOTH",
"736 670 OFFCURVE",
"773 710.333 OFFCURVE",
"799 763 CURVE SMOOTH",
"825 815.667 OFFCURVE",
"838 879.333 OFFCURVE",
"838 954 CURVE SMOOTH",
"838 1032.667 OFFCURVE",
"824.5 1098.167 OFFCURVE",
"797.5 1150.5 CURVE SMOOTH",
"770.5 1202.833 OFFCURVE",
"733.5 1242.167 OFFCURVE",
"686.5 1268.5 CURVE SMOOTH",
"639.5 1294.833 OFFCURVE",
"585.333 1308 OFFCURVE",
"524 1308 CURVE SMOOTH",
"476 1308 OFFCURVE",
"434.167 1299.833 OFFCURVE",
"398.5 1283.5 CURVE SMOOTH",
"362.833 1267.167 OFFCURVE",
"332.833 1245.333 OFFCURVE",
"308.5 1218 CURVE SMOOTH",
"284.167 1190.667 OFFCURVE",
"265 1160.667 OFFCURVE",
"251 1128 CURVE",
"244.333 1114 OFFCURVE",
"237.667 1104.167 OFFCURVE",
"231 1098.5 CURVE SMOOTH",
"224.333 1092.833 OFFCURVE",
"214.333 1090 OFFCURVE",
"201 1090 CURVE SMOOTH",
"99 1090 LINE SMOOTH",
"83.667 1090 OFFCURVE",
"73.5 1093.5 OFFCURVE",
"68.5 1100.5 CURVE SMOOTH",
"63.5 1107.5 OFFCURVE",
"62.667 1117 OFFCURVE",
"66 1129 CURVE SMOOTH",
"81.333 1189 OFFCURVE",
"109 1244.833 OFFCURVE",
"149 1296.5 CURVE SMOOTH",
"189 1348.167 OFFCURVE",
"240.5 1389.667 OFFCURVE",
"303.5 1421 CURVE SMOOTH",
"366.5 1452.333 OFFCURVE",
"440 1468 OFFCURVE",
"524 1468 CURVE SMOOTH",
"618.667 1468 OFFCURVE",
"703.333 1448 OFFCURVE",
"778 1408 CURVE SMOOTH",
"852.667 1368 OFFCURVE",
"911.667 1309.667 OFFCURVE",
"955 1233 CURVE SMOOTH",
"998.333 1156.333 OFFCURVE",
"1020 1062.667 OFFCURVE",
"1020 952 CURVE SMOOTH",
"1020 848.667 OFFCURVE",
"1000.667 758.5 OFFCURVE",
"962 681.5 CURVE SMOOTH",
"923.333 604.5 OFFCURVE",
"869.5 545 OFFCURVE",
"800.5 503 CURVE SMOOTH",
"731.5 461 OFFCURVE",
"651 440 OFFCURVE",
"559 440 CURVE SMOOTH",
"493.667 440 OFFCURVE",
"440.333 451.333 OFFCURVE",
"399 474 CURVE SMOOTH",
"357.667 496.667 OFFCURVE",
"323.667 521.667 OFFCURVE",
"297 549 CURVE",
"337 549 LINE",
"670 22 LINE SMOOTH",
"678 10 OFFCURVE",
"679.667 -0.667 OFFCURVE",
"675 -10 CURVE SMOOTH",
"670.333 -19.333 OFFCURVE",
"659.333 -24 OFFCURVE",
"642 -24 CURVE SMOOTH",
"529 -24 LINE",
"529 -24 LINE SMOOTH"
);
}
);
width = 1070;
}
);
note = "two-deva";
unicode = 0968;
},
{
glyphname = "three-deva";
layers = (
{
layerId = "EC0A993D-47FA-4182-AC72-4A7420448146";
paths = (
{
closed = 1;
nodes = (
"329.667 -24 OFFCURVE",
"310 -11 OFFCURVE",
"294 15 CURVE SMOOTH",
"61 389 LINE SMOOTH",
"53 402.333 OFFCURVE",
"51.833 414 OFFCURVE",
"57.5 424 CURVE SMOOTH",
"63.167 434 OFFCURVE",
"72.333 439 OFFCURVE",
"85 439 CURVE SMOOTH",
"186 439 LINE SMOOTH",
"199.333 439 OFFCURVE",
"210.167 437 OFFCURVE",
"218.5 433 CURVE SMOOTH",
"226.833 429 OFFCURVE",
"236.667 422.333 OFFCURVE",
"248 413 CURVE SMOOTH",
"276 388.333 OFFCURVE",
"310.167 368.333 OFFCURVE",
"350.5 353 CURVE SMOOTH",
"390.833 337.667 OFFCURVE",
"440 330 OFFCURVE",
"498 330 CURVE SMOOTH",
"582.667 330 OFFCURVE",
"648.667 348.167 OFFCURVE",
"696 384.5 CURVE SMOOTH",
"743.333 420.833 OFFCURVE",
"767 470.667 OFFCURVE",
"767 534 CURVE SMOOTH",
"767 596.667 OFFCURVE",
"743.833 646.333 OFFCURVE",
"697.5 683 CURVE SMOOTH",
"651.167 719.667 OFFCURVE",
"586 738 OFFCURVE",
"502 738 CURVE SMOOTH",
"319 738 LINE SMOOTH",
"293 738 OFFCURVE",
"280 751 OFFCURVE",
"280 777 CURVE SMOOTH",
"280 851 LINE SMOOTH",
"280 877 OFFCURVE",
"293 890 OFFCURVE",
"319 890 CURVE SMOOTH",
"483 890 LINE SMOOTH",
"534.333 890 OFFCURVE",
"579.667 898.333 OFFCURVE",
"619 915 CURVE SMOOTH",
"658.333 931.667 OFFCURVE",
"689.167 956 OFFCURVE",
"711.5 988 CURVE SMOOTH",
"733.833 1020 OFFCURVE",
"745 1058.333 OFFCURVE",
"745 1103 CURVE SMOOTH",
"745 1143.667 OFFCURVE",
"735.5 1179.5 OFFCURVE",
"716.5 1210.5 CURVE SMOOTH",
"697.5 1241.5 OFFCURVE",
"669.5 1266 OFFCURVE",
"632.5 1284 CURVE SMOOTH",
"595.5 1302 OFFCURVE",
"550 1311 OFFCURVE",
"496 1311 CURVE SMOOTH",
"434 1311 OFFCURVE",
"382.167 1298.833 OFFCURVE",
"340.5 1274.5 CURVE SMOOTH",
"298.833 1250.167 OFFCURVE",
"269.333 1216.667 OFFCURVE",
"252 1174 CURVE SMOOTH",
"245.333 1158.667 OFFCURVE",
"238.167 1148.333 OFFCURVE",
"230.5 1143 CURVE SMOOTH",
"222.833 1137.667 OFFCURVE",
"212.333 1135 OFFCURVE",
"199 1135 CURVE SMOOTH",
"107 1135 LINE SMOOTH",
"93.667 1135 OFFCURVE",
"84.167 1138.333 OFFCURVE",
"78.5 1145 CURVE SMOOTH",
"72.833 1151.667 OFFCURVE",
"72 1161.333 OFFCURVE",
"76 1174 CURVE",
"98.667 1262 OFFCURVE",
"146.667 1332.833 OFFCURVE",
"220 1386.5 CURVE SMOOTH",
"293.333 1440.167 OFFCURVE",
"386.667 1467 OFFCURVE",
"500 1467 CURVE SMOOTH",
"587.333 1467 OFFCURVE",
"662.833 1451.167 OFFCURVE",
"726.5 1419.5 CURVE SMOOTH",
"790.167 1387.833 OFFCURVE",
"839.333 1345.5 OFFCURVE",
"874 1292.5 CURVE SMOOTH",
"908.667 1239.5 OFFCURVE",
"926 1180.333 OFFCURVE",
"926 1115 CURVE SMOOTH",
"926 1051 OFFCURVE",
"909.667 994.833 OFFCURVE",
"877 946.5 CURVE SMOOTH",
"844.333 898.167 OFFCURVE",
"798.333 860.5 OFFCURVE",
"739 833.5 CURVE SMOOTH",
"679.667 806.5 OFFCURVE",
"610 793 OFFCURVE",
"530 793 CURVE",
"532 856 LINE",
"612 856 OFFCURVE",
"683.5 842.167 OFFCURVE",
"746.5 814.5 CURVE SMOOTH",
"809.5 786.833 OFFCURVE",
"859 747.833 OFFCURVE",
"895 697.5 CURVE SMOOTH",
"931 647.167 OFFCURVE",
"949 587.667 OFFCURVE",
"949 519 CURVE SMOOTH",
"949 451.667 OFFCURVE",
"931.833 391.667 OFFCURVE",
"897.5 339 CURVE SMOOTH",
"863.167 286.333 OFFCURVE",
"816.167 245 OFFCURVE",
"756.5 215 CURVE SMOOTH",
"696.833 185 OFFCURVE",
"629 170 OFFCURVE",
"553 170 CURVE SMOOTH",
"489 170 OFFCURVE",
"433.833 180.167 OFFCURVE",
"387.5 200.5 CURVE SMOOTH",
"341.167 220.833 OFFCURVE",
"304.333 246.333 OFFCURVE",
"277 277 CURVE",
"310 277 LINE",
"479 22 LINE SMOOTH",
"487 10 OFFCURVE",
"488.667 -0.667 OFFCURVE",
"484 -10 CURVE SMOOTH",
"479.333 -19.333 OFFCURVE",
"468.667 -24 OFFCURVE",
"452 -24 CURVE SMOOTH",
"353 -24 LINE",
"353 -24 LINE SMOOTH"
);
}
);
width = 1019;
}
);
note = "three-deva";
unicode = 0969;
},
{
glyphname = "four-deva";
layers = (
{
layerId = "EC0A993D-47FA-4182-AC72-4A7420448146";
paths = (
{
closed = 1;
nodes = (
"466 666 OFFCURVE",
"381 684.667 OFFCURVE",
"307 722 CURVE SMOOTH",
"233 759.333 OFFCURVE",
"175 812.333 OFFCURVE",
"133 881 CURVE SMOOTH",
"91 949.667 OFFCURVE",
"70 1030.667 OFFCURVE",
"70 1124 CURVE SMOOTH",
"70 1174 OFFCURVE",
"76.333 1223.833 OFFCURVE",
"89 1273.5 CURVE SMOOTH",
"101.667 1323.167 OFFCURVE",
"118.667 1367 OFFCURVE",
"140 1405 CURVE",
"147.333 1420.333 OFFCURVE",
"155.5 1430.5 OFFCURVE",
"164.5 1435.5 CURVE SMOOTH",
"173.5 1440.5 OFFCURVE",
"185.333 1443 OFFCURVE",
"200 1443 CURVE SMOOTH",
"313 1443 LINE SMOOTH",
"326.333 1443 OFFCURVE",
"335.333 1438.333 OFFCURVE",
"340 1429 CURVE SMOOTH",
"344.667 1419.667 OFFCURVE",
"343 1408.667 OFFCURVE",
"335 1396 CURVE SMOOTH",
"313 1359.333 OFFCURVE",
"293.667 1317.833 OFFCURVE",
"277 1271.5 CURVE SMOOTH",
"260.333 1225.167 OFFCURVE",
"252 1174.333 OFFCURVE",
"252 1119 CURVE SMOOTH",
"252 1050.333 OFFCURVE",
"265.167 992.333 OFFCURVE",
"291.5 945 CURVE SMOOTH",
"317.833 897.667 OFFCURVE",
"354.333 861.667 OFFCURVE",
"401 837 CURVE SMOOTH",
"447.667 812.333 OFFCURVE",
"501.333 800 OFFCURVE",
"562 800 CURVE SMOOTH",
"622.667 800 OFFCURVE",
"676.333 812.333 OFFCURVE",
"723 837 CURVE SMOOTH",
"769.667 861.667 OFFCURVE",
"806.167 897.667 OFFCURVE",
"832.5 945 CURVE SMOOTH",
"858.833 992.333 OFFCURVE",
"872 1050.333 OFFCURVE",
"872 1119 CURVE SMOOTH",
"872 1174.333 OFFCURVE",
"863.667 1225.167 OFFCURVE",
"847 1271.5 CURVE SMOOTH",
"830.333 1317.833 OFFCURVE",
"811 1359.333 OFFCURVE",
"789 1396 CURVE SMOOTH",
"781 1408.667 OFFCURVE",
"779.333 1419.667 OFFCURVE",
"784 1429 CURVE SMOOTH",
"788.667 1438.333 OFFCURVE",
"797.667 1443 OFFCURVE",
"811 1443 CURVE SMOOTH",
"924 1443 LINE SMOOTH",
"938.667 1443 OFFCURVE",
"950.5 1440.5 OFFCURVE",
"959.5 1435.5 CURVE SMOOTH",
"968.5 1430.5 OFFCURVE",
"976.667 1420.333 OFFCURVE",
"984 1405 CURVE",
"1005.333 1367 OFFCURVE",
"1022.333 1323.167 OFFCURVE",
"1035 1273.5 CURVE SMOOTH",
"1047.667 1223.833 OFFCURVE",
"1054 1174 OFFCURVE",
"1054 1124 CURVE SMOOTH",
"1054 1030.667 OFFCURVE",
"1033 949.667 OFFCURVE",
"991 881 CURVE SMOOTH",
"949 812.333 OFFCURVE",
"891 759.333 OFFCURVE",
"817 722 CURVE SMOOTH",
"743 684.667 OFFCURVE",
"658 666 OFFCURVE",
"562 666 CURVE SMOOTH",
"562 666 LINE SMOOTH"
);
},
{
closed = 1;
nodes = (
"482 0 OFFCURVE",
"410.167 16.5 OFFCURVE",
"346.5 49.5 CURVE SMOOTH",
"282.833 82.5 OFFCURVE",
"232.5 128 OFFCURVE",
"195.5 186 CURVE SMOOTH",
"158.5 244 OFFCURVE",
"140 310 OFFCURVE",
"140 384 CURVE SMOOTH",
"140 458 OFFCURVE",
"158.5 523.5 OFFCURVE",
"195.5 580.5 CURVE SMOOTH",
"232.5 637.5 OFFCURVE",
"282.833 682.333 OFFCURVE",
"346.5 715 CURVE SMOOTH",
"410.167 747.667 OFFCURVE",
"482 764 OFFCURVE",
"562 764 CURVE SMOOTH",
"642.667 764 OFFCURVE",
"714.667 747.667 OFFCURVE",
"778 715 CURVE SMOOTH",
"841.333 682.333 OFFCURVE",
"891.5 637.5 OFFCURVE",
"928.5 580.5 CURVE SMOOTH",
"965.5 523.5 OFFCURVE",
"984 458 OFFCURVE",
"984 384 CURVE SMOOTH",
"984 310 OFFCURVE",
"965.5 244 OFFCURVE",
"928.5 186 CURVE SMOOTH",
"891.5 128 OFFCURVE",
"841.333 82.5 OFFCURVE",
"778 49.5 CURVE SMOOTH",
"714.667 16.5 OFFCURVE",
"642.667 0 OFFCURVE",
"562 0 CURVE SMOOTH",
"562 0 LINE SMOOTH"
);
},
{
closed = 1;
nodes = (
"606.667 160 OFFCURVE",
"647.167 170.5 OFFCURVE",
"683.5 191.5 CURVE SMOOTH",
"719.833 212.5 OFFCURVE",
"748.667 241.167 OFFCURVE",
"770 277.5 CURVE SMOOTH",
"791.333 313.833 OFFCURVE",
"802 354.667 OFFCURVE",
"802 400 CURVE SMOOTH",
"802 445.333 OFFCURVE",
"791.333 486.167 OFFCURVE",
"770 522.5 CURVE SMOOTH",
"748.667 558.833 OFFCURVE",
"719.833 587.5 OFFCURVE",
"683.5 608.5 CURVE SMOOTH",
"647.167 629.5 OFFCURVE",
"606.667 640 OFFCURVE",
"562 640 CURVE SMOOTH",
"517.333 640 OFFCURVE",
"476.833 629.5 OFFCURVE",
"440.5 608.5 CURVE SMOOTH",
"404.167 587.5 OFFCURVE",
"375.333 558.833 OFFCURVE",
"354 522.5 CURVE SMOOTH",
"332.667 486.167 OFFCURVE",
"322 445.333 OFFCURVE",
"322 400 CURVE SMOOTH",
"322 354.667 OFFCURVE",
"332.667 313.833 OFFCURVE",
"354 277.5 CURVE SMOOTH",
"375.333 241.167 OFFCURVE",
"404.167 212.5 OFFCURVE",
"440.5 191.5 CURVE SMOOTH",
"476.833 170.5 OFFCURVE",
"517.333 160 OFFCURVE",
"562 160 CURVE",
"562 160 LINE"
);
}
);
width = 1124;
}
);
note = "four-deva";
unicode = 096A;
},
{
glyphname = "five-deva";
layers = (
{
layerId = "EC0A993D-47FA-4182-AC72-4A7420448146";
paths = (
{
closed = 1;
nodes = (
"995 -24 OFFCURVE",
"979.667 -11 OFFCURVE",
"975 15 CURVE SMOOTH",
"829 780 LINE",
"938 780 LINE",
"938.667 704 OFFCURVE",
"923 633.833 OFFCURVE",
"891 569.5 CURVE SMOOTH",
"859 505.167 OFFCURVE",
"811.167 453.5 OFFCURVE",
"747.5 414.5 CURVE SMOOTH",
"683.833 375.5 OFFCURVE",
"604.333 356 OFFCURVE",
"509 356 CURVE SMOOTH",
"411 356 OFFCURVE",
"327.833 377 OFFCURVE",
"259.5 419 CURVE SMOOTH",
"191.167 461 OFFCURVE",
"139.167 517 OFFCURVE",
"103.5 587 CURVE SMOOTH",
"67.833 657 OFFCURVE",
"50 734 OFFCURVE",
"50 818 CURVE SMOOTH",
"50 913.333 OFFCURVE",
"73.667 1013.833 OFFCURVE",
"121 1119.5 CURVE SMOOTH",
"168.333 1225.167 OFFCURVE",
"239.333 1323 OFFCURVE",
"334 1413 CURVE SMOOTH",
"346 1425 OFFCURVE",
"356.167 1433 OFFCURVE",
"364.5 1437 CURVE SMOOTH",
"372.833 1441 OFFCURVE",
"384.333 1443 OFFCURVE",
"399 1443 CURVE SMOOTH",
"537 1443 LINE SMOOTH",
"552.333 1443 OFFCURVE",
"561.333 1437.333 OFFCURVE",
"564 1426 CURVE SMOOTH",
"566.667 1414.667 OFFCURVE",
"563.667 1405 OFFCURVE",
"555 1397 CURVE SMOOTH",
"458.333 1307.667 OFFCURVE",
"380.333 1214.833 OFFCURVE",
"321 1118.5 CURVE SMOOTH",
"261.667 1022.167 OFFCURVE",
"232 924.333 OFFCURVE",
"232 825 CURVE SMOOTH",
"232 739.667 OFFCURVE",
"255.667 666.833 OFFCURVE",
"303 606.5 CURVE SMOOTH",
"350.333 546.167 OFFCURVE",
"420.667 516 OFFCURVE",
"514 516 CURVE SMOOTH",
"574 516 OFFCURVE",
"626.333 528.667 OFFCURVE",
"671 554 CURVE SMOOTH",
"715.667 579.333 OFFCURVE",
"750.5 613.5 OFFCURVE",
"775.5 656.5 CURVE SMOOTH",
"800.5 699.5 OFFCURVE",
"813 747 OFFCURVE",
"813 799 CURVE SMOOTH",
"813 804.333 OFFCURVE",
"812.833 809.833 OFFCURVE",
"812.5 815.5 CURVE SMOOTH",
"812.167 821.167 OFFCURVE",
"812 826.333 OFFCURVE",
"812 831 CURVE",
"811.333 843.667 OFFCURVE",
"814.333 853.333 OFFCURVE",
"821 860 CURVE SMOOTH",
"827.667 866.667 OFFCURVE",
"837.333 870 OFFCURVE",
"850 870 CURVE SMOOTH",
"950 870 LINE SMOOTH",
"971.333 870 OFFCURVE",
"984.667 857 OFFCURVE",
"990 831 CURVE SMOOTH",
"1154 15 LINE SMOOTH",
"1158.667 -11 OFFCURVE",
"1147.667 -24 OFFCURVE",
"1121 -24 CURVE SMOOTH",
"1021 -24 LINE",
"1021 -24 LINE SMOOTH"
);
}
);
width = 1146;
}
);
note = "five-deva";
unicode = 096B;
},
{
glyphname = "six-deva";
layers = (
{
layerId = "EC0A993D-47FA-4182-AC72-4A7420448146";
paths = (
{
closed = 1;
nodes = (
"897.333 -24 OFFCURVE",
"882 -11 OFFCURVE",
"876 15 CURVE SMOOTH",
"806 352 LINE",
"885 352 LINE",
"861.667 304 OFFCURVE",
"816.5 261.667 OFFCURVE",
"749.5 225 CURVE SMOOTH",
"682.5 188.333 OFFCURVE",
"598.333 170 OFFCURVE",
"497 170 CURVE SMOOTH",
"409 170 OFFCURVE",
"333.167 185 OFFCURVE",
"269.5 215 CURVE SMOOTH",
"205.833 245 OFFCURVE",
"156.667 286.333 OFFCURVE",
"122 339 CURVE SMOOTH",
"87.333 391.667 OFFCURVE",
"70 451.667 OFFCURVE",
"70 519 CURVE SMOOTH",
"70 587.667 OFFCURVE",
"88.167 647.167 OFFCURVE",
"124.5 697.5 CURVE SMOOTH",
"160.833 747.833 OFFCURVE",
"210.333 786.833 OFFCURVE",
"273 814.5 CURVE SMOOTH",
"335.667 842.167 OFFCURVE",
"407 856 OFFCURVE",
"487 856 CURVE",
"469 793 LINE",
"389.667 793 OFFCURVE",
"320.167 806.5 OFFCURVE",
"260.5 833.5 CURVE SMOOTH",
"200.833 860.5 OFFCURVE",
"154.667 898.167 OFFCURVE",
"122 946.5 CURVE SMOOTH",
"89.333 994.833 OFFCURVE",
"73 1051 OFFCURVE",
"73 1115 CURVE SMOOTH",
"73 1180.333 OFFCURVE",
"90.333 1239.5 OFFCURVE",
"125 1292.5 CURVE SMOOTH",
"159.667 1345.5 OFFCURVE",
"209 1387.833 OFFCURVE",
"273 1419.5 CURVE SMOOTH",
"337 1451.167 OFFCURVE",
"412.333 1467 OFFCURVE",
"499 1467 CURVE SMOOTH",
"617 1467 OFFCURVE",
"712.167 1438.833 OFFCURVE",
"784.5 1382.5 CURVE SMOOTH",
"856.833 1326.167 OFFCURVE",
"903 1256.667 OFFCURVE",
"923 1174 CURVE SMOOTH",
"926.333 1161.333 OFFCURVE",
"925.167 1151.667 OFFCURVE",
"919.5 1145 CURVE SMOOTH",
"913.833 1138.333 OFFCURVE",
"904.667 1135 OFFCURVE",
"892 1135 CURVE SMOOTH",
"800 1135 LINE SMOOTH",
"786.667 1135 OFFCURVE",
"776.333 1137.5 OFFCURVE",
"769 1142.5 CURVE SMOOTH",
"761.667 1147.5 OFFCURVE",
"754.333 1158 OFFCURVE",
"747 1174 CURVE",
"733 1210.667 OFFCURVE",
"705.667 1242.667 OFFCURVE",
"665 1270 CURVE SMOOTH",
"624.333 1297.333 OFFCURVE",
"570.333 1311 OFFCURVE",
"503 1311 CURVE SMOOTH",
"449.667 1311 OFFCURVE",
"404.333 1302 OFFCURVE",
"367 1284 CURVE SMOOTH",
"329.667 1266 OFFCURVE",
"301.5 1241.5 OFFCURVE",
"282.5 1210.5 CURVE SMOOTH",
"263.5 1179.5 OFFCURVE",
"254 1143.667 OFFCURVE",
"254 1103 CURVE SMOOTH",
"254 1058.333 OFFCURVE",
"265.167 1020 OFFCURVE",
"287.5 988 CURVE SMOOTH",
"309.833 956 OFFCURVE",
"340.833 931.667 OFFCURVE",
"380.5 915 CURVE SMOOTH",
"420.167 898.333 OFFCURVE",
"465.333 890 OFFCURVE",
"516 890 CURVE SMOOTH",
"680 890 LINE SMOOTH",
"706 890 OFFCURVE",
"719 877 OFFCURVE",
"719 851 CURVE SMOOTH",
"719 777 LINE SMOOTH",
"719 751 OFFCURVE",
"706 738 OFFCURVE",
"680 738 CURVE SMOOTH",
"517 738 LINE SMOOTH",
"433 738 OFFCURVE",
"367.833 719.667 OFFCURVE",
"321.5 683 CURVE SMOOTH",
"275.167 646.333 OFFCURVE",
"252 596.667 OFFCURVE",
"252 534 CURVE SMOOTH",
"252 470.667 OFFCURVE",
"275.833 420.833 OFFCURVE",
"323.5 384.5 CURVE SMOOTH",
"371.167 348.167 OFFCURVE",
"438.667 330 OFFCURVE",
"526 330 CURVE SMOOTH",
"595.333 330 OFFCURVE",
"648.667 339.833 OFFCURVE",
"686 359.5 CURVE SMOOTH",
"723.333 379.167 OFFCURVE",
"750 396.667 OFFCURVE",
"766 412 CURVE",
"776.667 421.333 OFFCURVE",
"784.833 428.167 OFFCURVE",
"790.5 432.5 CURVE SMOOTH",
"796.167 436.833 OFFCURVE",
"805 439 OFFCURVE",
"817 439 CURVE SMOOTH",
"926 439 LINE SMOOTH",
"946.667 439 OFFCURVE",
"959.667 426.333 OFFCURVE",
"965 401 CURVE SMOOTH",
"1049 15 LINE SMOOTH",
"1055 -11 OFFCURVE",
"1044.333 -24 OFFCURVE",
"1017 -24 CURVE SMOOTH",
"922 -24 LINE",
"922 -24 LINE SMOOTH"
);
}
);
width = 1043;
}
);
note = "six-deva";
unicode = 096C;
},
{
glyphname = "seven-deva";
layers = (
{
layerId = "EC0A993D-47FA-4182-AC72-4A7420448146";
paths = (
{
closed = 1;
nodes = (
"604.333 0 OFFCURVE",
"516.333 18 OFFCURVE",
"439 54 CURVE SMOOTH",
"361.667 90 OFFCURVE",
"296.167 140.5 OFFCURVE",
"242.5 205.5 CURVE SMOOTH",
"188.833 270.5 OFFCURVE",
"148 346.833 OFFCURVE",
"120 434.5 CURVE SMOOTH",
"92 522.167 OFFCURVE",
"78 617.667 OFFCURVE",
"78 721 CURVE SMOOTH",
"78 840.333 OFFCURVE",
"95.667 960.333 OFFCURVE",
"131 1081 CURVE SMOOTH",
"166.333 1201.667 OFFCURVE",
"213.667 1309.667 OFFCURVE",
"273 1405 CURVE SMOOTH",
"281.667 1419.667 OFFCURVE",
"290.333 1429.667 OFFCURVE",
"299 1435 CURVE SMOOTH",
"307.667 1440.333 OFFCURVE",
"319.333 1443 OFFCURVE",
"334 1443 CURVE SMOOTH",
"451 1443 LINE SMOOTH",
"464.333 1443 OFFCURVE",
"473.167 1438.333 OFFCURVE",
"477.5 1429 CURVE SMOOTH",
"481.833 1419.667 OFFCURVE",
"480.333 1408.667 OFFCURVE",
"473 1396 CURVE SMOOTH",
"405 1286.667 OFFCURVE",
"352.5 1176.333 OFFCURVE",
"315.5 1065 CURVE SMOOTH",
"278.5 953.667 OFFCURVE",
"260 843.333 OFFCURVE",
"260 734 CURVE SMOOTH",
"260 621.333 OFFCURVE",
"278.833 522.833 OFFCURVE",
"316.5 438.5 CURVE SMOOTH",
"354.167 354.167 OFFCURVE",
"407 288.667 OFFCURVE",
"475 242 CURVE SMOOTH",
"543 195.333 OFFCURVE",
"622.333 172 OFFCURVE",
"713 172 CURVE SMOOTH",
"800.333 172 OFFCURVE",
"878.167 193.333 OFFCURVE",
"946.5 236 CURVE SMOOTH",
"1014.833 278.667 OFFCURVE",
"1068.5 340.333 OFFCURVE",
"1107.5 421 CURVE SMOOTH",
"1146.5 501.667 OFFCURVE",
"1166 599.333 OFFCURVE",
"1166 714 CURVE",
"1218 740 LINE",
"1218 692.667 OFFCURVE",
"1205.167 646.333 OFFCURVE",
"1179.5 601 CURVE SMOOTH",
"1153.833 555.667 OFFCURVE",
"1116.167 518.333 OFFCURVE",
"1066.5 489 CURVE SMOOTH",
"1016.833 459.667 OFFCURVE",
"955.667 445 OFFCURVE",
"883 445 CURVE SMOOTH",
"809 445 OFFCURVE",
"743 461.167 OFFCURVE",
"685 493.5 CURVE SMOOTH",
"627 525.833 OFFCURVE",
"581.333 570.167 OFFCURVE",
"548 626.5 CURVE SMOOTH",
"514.667 682.833 OFFCURVE",
"498 747 OFFCURVE",
"498 819 CURVE SMOOTH",
"498 894.333 OFFCURVE",
"515.833 961.333 OFFCURVE",
"551.5 1020 CURVE SMOOTH",
"587.167 1078.667 OFFCURVE",
"635.833 1124.667 OFFCURVE",
"697.5 1158 CURVE SMOOTH",
"759.167 1191.333 OFFCURVE",
"828.333 1208 OFFCURVE",
"905 1208 CURVE SMOOTH",
"988.333 1208 OFFCURVE",
"1062 1188.833 OFFCURVE",
"1126 1150.5 CURVE SMOOTH",
"1190 1112.167 OFFCURVE",
"1240 1054.167 OFFCURVE",
"1276 976.5 CURVE SMOOTH",
"1312 898.833 OFFCURVE",
"1330 801.333 OFFCURVE",
"1330 684 CURVE SMOOTH",
"1330 588 OFFCURVE",
"1316 498.667 OFFCURVE",
"1288 416 CURVE SMOOTH",
"1260 333.333 OFFCURVE",
"1219 260.833 OFFCURVE",
"1165 198.5 CURVE SMOOTH",
"1111 136.167 OFFCURVE",
"1045.167 87.5 OFFCURVE",
"967.5 52.5 CURVE SMOOTH",
"889.833 17.5 OFFCURVE",
"801.667 0 OFFCURVE",
"703 0 CURVE SMOOTH",
"703 0 LINE SMOOTH"
);
},
{
closed = 1;
nodes = (
"950.667 595 OFFCURVE",
"990.167 604.5 OFFCURVE",
"1024.5 623.5 CURVE SMOOTH",
"1058.833 642.5 OFFCURVE",
"1086 668.833 OFFCURVE",
"1106 702.5 CURVE SMOOTH",
"1126 736.167 OFFCURVE",
"1136 774.667 OFFCURVE",
"1136 818 CURVE SMOOTH",
"1136 861.333 OFFCURVE",
"1126 900.333 OFFCURVE",
"1106 935 CURVE SMOOTH",
"1086 969.667 OFFCURVE",
"1058.833 997.167 OFFCURVE",
"1024.5 1017.5 CURVE SMOOTH",
"990.167 1037.833 OFFCURVE",
"951.667 1048 OFFCURVE",
"909 1048 CURVE SMOOTH",
"866.333 1048 OFFCURVE",
"827.667 1038 OFFCURVE",
"793 1018 CURVE SMOOTH",
"758.333 998 OFFCURVE",
"730.833 970.5 OFFCURVE",
"710.5 935.5 CURVE SMOOTH",
"690.167 900.5 OFFCURVE",
"680 861 OFFCURVE",
"680 817 CURVE SMOOTH",
"680 775 OFFCURVE",
"689.667 737.167 OFFCURVE",
"709 703.5 CURVE SMOOTH",
"728.333 669.833 OFFCURVE",
"755 643.333 OFFCURVE",
"789 624 CURVE SMOOTH",
"823 604.667 OFFCURVE",
"862 595 OFFCURVE",
"906 595 CURVE",
"906 595 LINE"
);
}
);
width = 1400;
}
);
note = "seven-deva";
unicode = 096D;
},
{
glyphname = "eight-deva";
layers = (
{
layerId = "EC0A993D-47FA-4182-AC72-4A7420448146";
paths = (
{
closed = 1;
nodes = (
"437.333 0 OFFCURVE",
"352.667 18.667 OFFCURVE",
"280 56 CURVE SMOOTH",
"207.333 93.333 OFFCURVE",
"150.833 145 OFFCURVE",
"110.5 211 CURVE SMOOTH",
"70.167 277 OFFCURVE",
"50 352.667 OFFCURVE",
"50 438 CURVE SMOOTH",
"50 499.333 OFFCURVE",
"60.667 560.167 OFFCURVE",
"82 620.5 CURVE SMOOTH",
"103.333 680.833 OFFCURVE",
"129.5 738.667 OFFCURVE",
"160.5 794 CURVE SMOOTH",
"191.5 849.333 OFFCURVE",
"222 900.667 OFFCURVE",
"252 948 CURVE SMOOTH",
"542 1404 LINE SMOOTH",
"550.667 1418.667 OFFCURVE",
"559.5 1428.833 OFFCURVE",
"568.5 1434.5 CURVE SMOOTH",
"577.5 1440.167 OFFCURVE",
"589.667 1443 OFFCURVE",
"605 1443 CURVE SMOOTH",
"718 1443 LINE SMOOTH",
"732 1443 OFFCURVE",
"741.5 1438.167 OFFCURVE",
"746.5 1428.5 CURVE SMOOTH",
"751.5 1418.833 OFFCURVE",
"750 1408 OFFCURVE",
"742 1396 CURVE SMOOTH",
"389 842 LINE SMOOTH",
"348.333 777.333 OFFCURVE",
"312 711.5 OFFCURVE",
"280 644.5 CURVE SMOOTH",
"248 577.5 OFFCURVE",
"232 510 OFFCURVE",
"232 442 CURVE SMOOTH",
"232 396.667 OFFCURVE",
"242.667 352.333 OFFCURVE",
"264 309 CURVE SMOOTH",
"285.333 265.667 OFFCURVE",
"318.5 230 OFFCURVE",
"363.5 202 CURVE SMOOTH",
"408.5 174 OFFCURVE",
"466.333 160 OFFCURVE",
"537 160 CURVE SMOOTH",
"589 160 OFFCURVE",
"635.833 169 OFFCURVE",
"677.5 187 CURVE SMOOTH",
"719.167 205 OFFCURVE",
"753.5 231.833 OFFCURVE",
"780.5 267.5 CURVE SMOOTH",
"807.5 303.167 OFFCURVE",
"825.667 347.333 OFFCURVE",
"835 400 CURVE SMOOTH",
"837 412.667 OFFCURVE",
"841.333 422.333 OFFCURVE",
"848 429 CURVE SMOOTH",
"854.667 435.667 OFFCURVE",
"864.667 439 OFFCURVE",
"878 439 CURVE SMOOTH",
"974 439 LINE SMOOTH",
"988 439 OFFCURVE",
"997.667 435.5 OFFCURVE",
"1003 428.5 CURVE SMOOTH",
"1008.333 421.5 OFFCURVE",
"1010.333 412 OFFCURVE",
"1009 400 CURVE SMOOTH",
"999 316.667 OFFCURVE",
"972.167 245.167 OFFCURVE",
"928.5 185.5 CURVE SMOOTH",
"884.833 125.833 OFFCURVE",
"828.833 80 OFFCURVE",
"760.5 48 CURVE SMOOTH",
"692.167 16 OFFCURVE",
"616.667 0 OFFCURVE",
"534 0 CURVE SMOOTH",
"534 0 LINE SMOOTH"
);
}
);
width = 1041;
}
);
note = "eight-deva";
unicode = 096E;
},
{
glyphname = "nine-deva";
layers = (
{
layerId = "EC0A993D-47FA-4182-AC72-4A7420448146";
paths = (
{
closed = 1;
nodes = (
"616 -24 OFFCURVE",
"603 -11 OFFCURVE",
"603 15 CURVE SMOOTH",
"603 47.667 OFFCURVE",
"600.5 78.667 OFFCURVE",
"595.5 108 CURVE SMOOTH",
"590.5 137.333 OFFCURVE",
"581.167 167.167 OFFCURVE",
"567.5 197.5 CURVE SMOOTH",
"553.833 227.833 OFFCURVE",
"533.333 261.333 OFFCURVE",
"506 298 CURVE SMOOTH",
"222 684 LINE SMOOTH",
"186 732.667 OFFCURVE",
"156.833 778.5 OFFCURVE",
"134.5 821.5 CURVE SMOOTH",
"112.167 864.5 OFFCURVE",
"95.833 906 OFFCURVE",
"85.5 946 CURVE SMOOTH",
"75.167 986 OFFCURVE",
"70 1026 OFFCURVE",
"70 1066 CURVE SMOOTH",
"70 1139.333 OFFCURVE",
"87.167 1206.5 OFFCURVE",
"121.5 1267.5 CURVE SMOOTH",
"155.833 1328.5 OFFCURVE",
"204.333 1377.167 OFFCURVE",
"267 1413.5 CURVE SMOOTH",
"329.667 1449.833 OFFCURVE",
"403.333 1468 OFFCURVE",
"488 1468 CURVE SMOOTH",
"566 1468 OFFCURVE",
"636.167 1451 OFFCURVE",
"698.5 1417 CURVE SMOOTH",
"760.833 1383 OFFCURVE",
"810 1336.667 OFFCURVE",
"846 1278 CURVE SMOOTH",
"882 1219.333 OFFCURVE",
"900 1152.667 OFFCURVE",
"900 1078 CURVE SMOOTH",
"900 1006 OFFCURVE",
"883.667 942.167 OFFCURVE",
"851 886.5 CURVE SMOOTH",
"818.333 830.833 OFFCURVE",
"773.167 787 OFFCURVE",
"715.5 755 CURVE SMOOTH",
"657.833 723 OFFCURVE",
"592 707 OFFCURVE",
"518 707 CURVE SMOOTH",
"442 707 OFFCURVE",
"381 721.833 OFFCURVE",
"335 751.5 CURVE SMOOTH",
"289 781.167 OFFCURVE",
"257.333 819.667 OFFCURVE",
"240 867 CURVE",
"284 867 LINE",
"298 849 OFFCURVE",
"312.833 829.833 OFFCURVE",
"328.5 809.5 CURVE SMOOTH",
"344.167 789.167 OFFCURVE",
"357.333 772 OFFCURVE",
"368 758 CURVE SMOOTH",
"654 384 LINE SMOOTH",
"688.667 338.667 OFFCURVE",
"714.833 296.333 OFFCURVE",
"732.5 257 CURVE SMOOTH",
"750.167 217.667 OFFCURVE",
"762 178.5 OFFCURVE",
"768 139.5 CURVE SMOOTH",
"774 100.5 OFFCURVE",
"777 59 OFFCURVE",
"777 15 CURVE SMOOTH",
"777 -11 OFFCURVE",
"764 -24 OFFCURVE",
"738 -24 CURVE SMOOTH",
"642 -24 LINE",
"642 -24 LINE SMOOTH"
);
},
{
closed = 1;
nodes = (
"532.333 845 OFFCURVE",
"572.333 854.833 OFFCURVE",
"607 874.5 CURVE SMOOTH",
"641.667 894.167 OFFCURVE",
"668.833 921.167 OFFCURVE",
"688.5 955.5 CURVE SMOOTH",
"708.167 989.833 OFFCURVE",
"718 1028.667 OFFCURVE",
"718 1072 CURVE SMOOTH",
"718 1117.333 OFFCURVE",
"707.667 1157.667 OFFCURVE",
"687 1193 CURVE SMOOTH",
"666.333 1228.333 OFFCURVE",
"638.333 1256.333 OFFCURVE",
"603 1277 CURVE SMOOTH",
"567.667 1297.667 OFFCURVE",
"528 1308 OFFCURVE",
"484 1308 CURVE SMOOTH",
"440 1308 OFFCURVE",
"400.5 1297.667 OFFCURVE",
"365.5 1277 CURVE SMOOTH",
"330.5 1256.333 OFFCURVE",
"302.833 1228.167 OFFCURVE",
"282.5 1192.5 CURVE SMOOTH",
"262.167 1156.833 OFFCURVE",
"252 1117 OFFCURVE",
"252 1073 CURVE SMOOTH",
"252 1029 OFFCURVE",
"262.167 989.833 OFFCURVE",
"282.5 955.5 CURVE SMOOTH",
"302.833 921.167 OFFCURVE",
"330.833 894.167 OFFCURVE",
"366.5 874.5 CURVE SMOOTH",
"402.167 854.833 OFFCURVE",
"442.333 845 OFFCURVE",
"487 845 CURVE",
"487 845 LINE"
);
}
);
width = 946;
}
);
note = "nine-deva";
unicode = 096F;
},
{
glyphname = "zero-ar";
layers = (
{
layerId = "EC0A993D-47FA-4182-AC72-4A7420448146";
paths = (
{
closed = 1;
nodes = (
"241 555 LINE",
"82 715 LINE SMOOTH",
"67.333 729.667 OFFCURVE",
"67.333 744.333 OFFCURVE",
"82 759 CURVE SMOOTH",
"241 917 LINE SMOOTH",
"255.667 931.667 OFFCURVE",
"270.333 931.667 OFFCURVE",
"285 917 CURVE SMOOTH",
"444 757 LINE SMOOTH",
"458.667 742.333 OFFCURVE",
"458.667 727.667 OFFCURVE",
"444 713 CURVE SMOOTH",
"285 555 LINE SMOOTH",
"270.333 540.333 OFFCURVE",
"255.667 540.333 OFFCURVE",
"241 555 CURVE"
);
}
);
width = 526;
}
);
note = "zero-ar";
unicode = 0660;
},
{
glyphname = "one-ar";
layers = (
{
layerId = "EC0A993D-47FA-4182-AC72-4A7420448146";
paths = (
{
closed = 1;
nodes = (
"277.667 0 OFFCURVE",
"264.667 13 OFFCURVE",
"262 39 CURVE SMOOTH",
"113 1404 LINE SMOOTH",
"109.667 1430 OFFCURVE",
"121.333 1443 OFFCURVE",
"148 1443 CURVE SMOOTH",
"242 1443 LINE SMOOTH",
"265.333 1443 OFFCURVE",
"278.667 1430 OFFCURVE",
"282 1404 CURVE SMOOTH",
"431 39 LINE SMOOTH",
"434.333 13 OFFCURVE",
"422.333 0 OFFCURVE",
"395 0 CURVE SMOOTH",
"301 0 LINE",
"301 0 LINE SMOOTH"
);
}
);
width = 539;
}
);
note = "one-ar";
unicode = 0661;
},
{
glyphname = "two-ar";
layers = (
{
layerId = "EC0A993D-47FA-4182-AC72-4A7420448146";
paths = (
{
closed = 1;
nodes = (
"283.333 0 OFFCURVE",
"270.333 13 OFFCURVE",
"267 39 CURVE SMOOTH",
"108 1404 LINE SMOOTH",
"104.667 1430 OFFCURVE",
"116.667 1443 OFFCURVE",
"144 1443 CURVE SMOOTH",
"238 1443 LINE SMOOTH",
"260.667 1443 OFFCURVE",
"273.667 1430 OFFCURVE",
"277 1404 CURVE SMOOTH",
"436 39 LINE SMOOTH",
"439.333 13 OFFCURVE",
"427.333 0 OFFCURVE",
"400 0 CURVE SMOOTH",
"306 0 LINE",
"306 0 LINE SMOOTH"
);
},
{
closed = 1;
nodes = (
"513 873 OFFCURVE",
"422.667 905 OFFCURVE",
"350 969 CURVE SMOOTH",
"277.333 1033 OFFCURVE",
"227.333 1129.667 OFFCURVE",
"200 1259 CURVE",
"277 1404 LINE",
"300.333 1285.333 OFFCURVE",
"343.5 1200.5 OFFCURVE",
"406.5 1149.5 CURVE SMOOTH",
"469.5 1098.5 OFFCURVE",
"539.333 1073 OFFCURVE",
"616 1073 CURVE SMOOTH",
"705.333 1073 OFFCURVE",
"774 1102.833 OFFCURVE",
"822 1162.5 CURVE SMOOTH",
"870 1222.167 OFFCURVE",
"894 1302.667 OFFCURVE",
"894 1404 CURVE SMOOTH",
"894 1430 OFFCURVE",
"907.667 1443 OFFCURVE",
"935 1443 CURVE SMOOTH",
"1010 1443 LINE SMOOTH",
"1036.667 1443 OFFCURVE",
"1050 1430 OFFCURVE",
"1050 1404 CURVE SMOOTH",
"1050 1333.333 OFFCURVE",
"1041.833 1266.167 OFFCURVE",
"1025.5 1202.5 CURVE SMOOTH",
"1009.167 1138.833 OFFCURVE",
"983.667 1082.167 OFFCURVE",
"949 1032.5 CURVE SMOOTH",
"914.333 982.833 OFFCURVE",
"869.833 943.833 OFFCURVE",
"815.5 915.5 CURVE SMOOTH",
"761.167 887.167 OFFCURVE",
"696.333 873 OFFCURVE",
"621 873 CURVE SMOOTH",
"621 873 LINE SMOOTH"
);
}
);
width = 1128;
}
);
note = "two-ar";
unicode = 0662;
},
{
glyphname = "three-ar";
layers = (
{
layerId = "EC0A993D-47FA-4182-AC72-4A7420448146";
paths = (
{
closed = 1;
nodes = (
"283.333 0 OFFCURVE",
"270.333 13 OFFCURVE",
"267 39 CURVE SMOOTH",
"108 1404 LINE SMOOTH",
"104.667 1430 OFFCURVE",
"116.333 1443 OFFCURVE",
"143 1443 CURVE SMOOTH",
"237 1443 LINE SMOOTH",
"260.333 1443 OFFCURVE",
"273.667 1430 OFFCURVE",
"277 1404 CURVE SMOOTH",
"436 39 LINE SMOOTH",
"439.333 13 OFFCURVE",
"427.333 0 OFFCURVE",
"400 0 CURVE SMOOTH",
"306 0 LINE",
"306 0 LINE SMOOTH"
);
},
{
closed = 1;
nodes = (
"453.667 865 OFFCURVE",
"410.833 875.167 OFFCURVE",
"374.5 895.5 CURVE SMOOTH",
"338.167 915.833 OFFCURVE",
"307.167 948.5 OFFCURVE",
"281.5 993.5 CURVE SMOOTH",
"255.833 1038.5 OFFCURVE",
"234.667 1097.667 OFFCURVE",
"218 1171 CURVE",
"277 1404 LINE",
"287.667 1323.333 OFFCURVE",
"301.5 1258 OFFCURVE",
"318.5 1208 CURVE SMOOTH",
"335.5 1158 OFFCURVE",
"357.167 1121.667 OFFCURVE",
"383.5 1099 CURVE SMOOTH",
"409.833 1076.333 OFFCURVE",
"442 1065 OFFCURVE",
"480 1065 CURVE SMOOTH",
"582 1065 OFFCURVE",
"633 1148 OFFCURVE",
"633 1314 CURVE SMOOTH",
"633 1404 LINE SMOOTH",
"633 1430 OFFCURVE",
"646 1443 OFFCURVE",
"672 1443 CURVE SMOOTH",
"744 1443 LINE SMOOTH",
"770 1443 OFFCURVE",
"783 1430 OFFCURVE",
"783 1404 CURVE SMOOTH",
"783 1312 LINE SMOOTH",
"783 1228.667 OFFCURVE",
"797 1166.667 OFFCURVE",
"825 1126 CURVE SMOOTH",
"853 1085.333 OFFCURVE",
"892 1065 OFFCURVE",
"942 1065 CURVE SMOOTH",
"996.667 1065 OFFCURVE",
"1035.833 1088.5 OFFCURVE",
"1059.5 1135.5 CURVE SMOOTH",
"1083.167 1182.5 OFFCURVE",
"1095 1247.333 OFFCURVE",
"1095 1330 CURVE SMOOTH",
"1095 1341.333 OFFCURVE",
"1094.667 1352.833 OFFCURVE",
"1094 1364.5 CURVE SMOOTH",
"1093.333 1376.167 OFFCURVE",
"1092.667 1388.333 OFFCURVE",
"1092 1401 CURVE SMOOTH",
"1090 1429 OFFCURVE",
"1102 1443 OFFCURVE",
"1128 1443 CURVE SMOOTH",
"1194 1443 LINE SMOOTH",
"1205.333 1443 OFFCURVE",
"1214.667 1440.167 OFFCURVE",
"1222 1434.5 CURVE SMOOTH",
"1229.333 1428.833 OFFCURVE",
"1234.333 1420.333 OFFCURVE",
"1237 1409 CURVE",
"1239.667 1392.333 OFFCURVE",
"1241.667 1375.833 OFFCURVE",
"1243 1359.5 CURVE SMOOTH",
"1244.333 1343.167 OFFCURVE",
"1245 1323.333 OFFCURVE",
"1245 1300 CURVE SMOOTH",
"1245 1212 OFFCURVE",
"1233.833 1135.5 OFFCURVE",
"1211.5 1070.5 CURVE SMOOTH",
"1189.167 1005.5 OFFCURVE",
"1156.167 955 OFFCURVE",
"1112.5 919 CURVE SMOOTH",
"1068.833 883 OFFCURVE",
"1015 865 OFFCURVE",
"951 865 CURVE SMOOTH",
"890.333 865 OFFCURVE",
"838.5 880.333 OFFCURVE",
"795.5 911 CURVE SMOOTH",
"752.5 941.667 OFFCURVE",
"724.333 981 OFFCURVE",
"711 1029 CURVE",
"720 1029 LINE",
"710 979.667 OFFCURVE",
"685.833 940 OFFCURVE",
"647.5 910 CURVE SMOOTH",
"609.167 880 OFFCURVE",
"561 865 OFFCURVE",
"503 865 CURVE SMOOTH",
"503 865 LINE SMOOTH"
);
}
);
width = 1325;
}
);
note = "three-ar";
unicode = 0663;
},
{
glyphname = "four-ar";
layers = (
{
layerId = "EC0A993D-47FA-4182-AC72-4A7420448146";
paths = (
{
closed = 1;
nodes = (
"383.333 -20 OFFCURVE",
"281.667 12.167 OFFCURVE",
"213 76.5 CURVE SMOOTH",
"144.333 140.833 OFFCURVE",
"110 220 OFFCURVE",
"110 314 CURVE SMOOTH",
"110 408.667 OFFCURVE",
"148.167 494.333 OFFCURVE",
"224.5 571 CURVE SMOOTH",
"300.833 647.667 OFFCURVE",
"413.667 715.667 OFFCURVE",
"563 775 CURVE",
"563 670 LINE",
"475.667 681.333 OFFCURVE",
"398.5 699.5 OFFCURVE",
"331.5 724.5 CURVE SMOOTH",
"264.5 749.5 OFFCURVE",
"212.167 783.833 OFFCURVE",
"174.5 827.5 CURVE SMOOTH",
"136.833 871.167 OFFCURVE",
"118 925.667 OFFCURVE",
"118 991 CURVE SMOOTH",
"118 1058.333 OFFCURVE",
"140 1119.667 OFFCURVE",
"184 1175 CURVE SMOOTH",
"228 1230.333 OFFCURVE",
"292.5 1280.833 OFFCURVE",
"377.5 1326.5 CURVE SMOOTH",
"462.5 1372.167 OFFCURVE",
"566.667 1413.333 OFFCURVE",
"690 1450 CURVE SMOOTH",
"702.667 1453.333 OFFCURVE",
"712.333 1452.5 OFFCURVE",
"719 1447.5 CURVE SMOOTH",
"725.667 1442.5 OFFCURVE",
"729 1433.333 OFFCURVE",
"729 1420 CURVE SMOOTH",
"729 1306 LINE SMOOTH",
"729 1285.333 OFFCURVE",
"719.333 1272.333 OFFCURVE",
"700 1267 CURVE SMOOTH",
"569.333 1226.333 OFFCURVE",
"468 1182.5 OFFCURVE",
"396 1135.5 CURVE SMOOTH",
"324 1088.5 OFFCURVE",
"288 1042.667 OFFCURVE",
"288 998 CURVE SMOOTH",
"288 959.333 OFFCURVE",
"306.833 928.667 OFFCURVE",
"344.5 906 CURVE SMOOTH",
"382.167 883.333 OFFCURVE",
"430 866.833 OFFCURVE",
"488 856.5 CURVE SMOOTH",
"546 846.167 OFFCURVE",
"605.333 839.667 OFFCURVE",
"666 837 CURVE SMOOTH",
"692 836.333 OFFCURVE",
"705 823.667 OFFCURVE",
"705 799 CURVE SMOOTH",
"705 700 LINE SMOOTH",
"705 680.667 OFFCURVE",
"696.333 667.333 OFFCURVE",
"679 660 CURVE SMOOTH",
"545.667 605.333 OFFCURVE",
"445.833 551.833 OFFCURVE",
"379.5 499.5 CURVE SMOOTH",
"313.167 447.167 OFFCURVE",
"280 390.667 OFFCURVE",
"280 330 CURVE SMOOTH",
"280 280.667 OFFCURVE",
"301.667 243.333 OFFCURVE",
"345 218 CURVE SMOOTH",
"388.333 192.667 OFFCURVE",
"452 180 OFFCURVE",
"536 180 CURVE SMOOTH",
"590 180 OFFCURVE",
"643.167 183.833 OFFCURVE",
"695.5 191.5 CURVE SMOOTH",
"747.833 199.167 OFFCURVE",
"795.667 209.333 OFFCURVE",
"839 222 CURVE SMOOTH",
"865 230 OFFCURVE",
"878 220.667 OFFCURVE",
"878 194 CURVE SMOOTH",
"878 68 LINE SMOOTH",
"878 58 OFFCURVE",
"875.833 49.5 OFFCURVE",
"871.5 42.5 CURVE SMOOTH",
"867.167 35.5 OFFCURVE",
"860.667 30.667 OFFCURVE",
"852 28 CURVE SMOOTH",
"808 13.333 OFFCURVE",
"755 1.667 OFFCURVE",
"693 -7 CURVE SMOOTH",
"631 -15.667 OFFCURVE",
"572.667 -20 OFFCURVE",
"518 -20 CURVE SMOOTH",
"518 -20 LINE SMOOTH"
);
}
);
width = 908;
}
);
note = "four-ar";
unicode = 0664;
},
{
glyphname = "five-ar";
layers = (
{
layerId = "EC0A993D-47FA-4182-AC72-4A7420448146";
paths = (
{
closed = 1;
nodes = (
"386.667 181 OFFCURVE",
"279.5 224.167 OFFCURVE",
"204.5 310.5 CURVE SMOOTH",
"129.5 396.833 OFFCURVE",
"92 516 OFFCURVE",
"92 668 CURVE SMOOTH",
"92 754 OFFCURVE",
"102.833 835.167 OFFCURVE",
"124.5 911.5 CURVE SMOOTH",
"146.167 987.833 OFFCURVE",
"177.167 1055.333 OFFCURVE",
"217.5 1114 CURVE SMOOTH",
"257.833 1172.667 OFFCURVE",
"305.667 1218.833 OFFCURVE",
"361 1252.5 CURVE SMOOTH",
"416.333 1286.167 OFFCURVE",
"478 1303 OFFCURVE",
"546 1303 CURVE SMOOTH",
"612.667 1303 OFFCURVE",
"672.5 1286.833 OFFCURVE",
"725.5 1254.5 CURVE SMOOTH",
"778.5 1222.167 OFFCURVE",
"823.667 1177.667 OFFCURVE",
"861 1121 CURVE SMOOTH",
"898.333 1064.333 OFFCURVE",
"926.833 999.167 OFFCURVE",
"946.5 925.5 CURVE SMOOTH",
"966.167 851.833 OFFCURVE",
"976 773.667 OFFCURVE",
"976 691 CURVE SMOOTH",
"976 531 OFFCURVE",
"936.667 406 OFFCURVE",
"858 316 CURVE SMOOTH",
"779.333 226 OFFCURVE",
"668.667 181 OFFCURVE",
"526 181 CURVE SMOOTH",
"526 181 LINE SMOOTH"
);
},
{
closed = 1;
nodes = (
"617.667 381 OFFCURVE",
"687.5 409.333 OFFCURVE",
"736.5 466 CURVE SMOOTH",
"785.5 522.667 OFFCURVE",
"810 602 OFFCURVE",
"810 704 CURVE SMOOTH",
"810 774.667 OFFCURVE",
"799.5 840.167 OFFCURVE",
"778.5 900.5 CURVE SMOOTH",
"757.5 960.833 OFFCURVE",
"727.333 1009.667 OFFCURVE",
"688 1047 CURVE SMOOTH",
"648.667 1084.333 OFFCURVE",
"601.333 1103 OFFCURVE",
"546 1103 CURVE SMOOTH",
"488.667 1103 OFFCURVE",
"438.333 1082.833 OFFCURVE",
"395 1042.5 CURVE SMOOTH",
"351.667 1002.167 OFFCURVE",
"318 949.833 OFFCURVE",
"294 885.5 CURVE SMOOTH",
"270 821.167 OFFCURVE",
"258 752.667 OFFCURVE",
"258 680 CURVE SMOOTH",
"258 587.333 OFFCURVE",
"281 514.333 OFFCURVE",
"327 461 CURVE SMOOTH",
"373 407.667 OFFCURVE",
"439.667 381 OFFCURVE",
"527 381 CURVE",
"527 381 LINE"
);
}
);
width = 1068;
}
);
note = "five-ar";
unicode = 0665;
},
{
glyphname = "six-ar";
layers = (
{
layerId = "EC0A993D-47FA-4182-AC72-4A7420448146";
paths = (
{
closed = 1;
nodes = (
"680.333 0 OFFCURVE",
"667.333 13 OFFCURVE",
"664 39 CURVE SMOOTH",
"515 1404 LINE SMOOTH",
"511.667 1430 OFFCURVE",
"523.667 1443 OFFCURVE",
"551 1443 CURVE SMOOTH",
"643 1443 LINE SMOOTH",
"665.667 1443 OFFCURVE",
"678.667 1430 OFFCURVE",
"682 1404 CURVE SMOOTH",
"833 39 LINE SMOOTH",
"836.333 13 OFFCURVE",
"824.333 0 OFFCURVE",
"797 0 CURVE SMOOTH",
"703 0 LINE",
"703 0 LINE SMOOTH"
);
},
{
closed = 1;
nodes = (
"13 1243 OFFCURVE",
"0 1256 OFFCURVE",
"0 1282 CURVE SMOOTH",
"0 1404 LINE SMOOTH",
"0 1430 OFFCURVE",
"13 1443 OFFCURVE",
"39 1443 CURVE SMOOTH",
"594 1443 LINE",
"617 1243 LINE",
"39 1243 LINE",
"39 1243 LINE SMOOTH"
);
}
);
width = 940;
}
);
note = "six-ar";
unicode = 0666;
},
{
glyphname = "seven-ar";
layers = (
{
layerId = "EC0A993D-47FA-4182-AC72-4A7420448146";
paths = (
{
closed = 1;
nodes = (
"445.667 0 OFFCURVE",
"432.333 9.667 OFFCURVE",
"427 29 CURVE SMOOTH",
"363 287 OFFCURVE",
"297 533.167 OFFCURVE",
"229 767.5 CURVE SMOOTH",
"161 1001.833 OFFCURVE",
"98 1214 OFFCURVE",
"40 1404 CURVE SMOOTH",
"36 1416 OFFCURVE",
"36.5 1425.5 OFFCURVE",
"41.5 1432.5 CURVE SMOOTH",
"46.5 1439.5 OFFCURVE",
"54.667 1443 OFFCURVE",
"66 1443 CURVE SMOOTH",
"168 1443 LINE SMOOTH",
"188 1443 OFFCURVE",
"201 1432.667 OFFCURVE",
"207 1412 CURVE SMOOTH",
"264.333 1226.667 OFFCURVE",
"323 1030.833 OFFCURVE",
"383 824.5 CURVE SMOOTH",
"443 618.167 OFFCURVE",
"500 409.333 OFFCURVE",
"554 198 CURVE",
"549 198 LINE",
"601.667 409.333 OFFCURVE",
"658.167 618.167 OFFCURVE",
"718.5 824.5 CURVE SMOOTH",
"778.833 1030.833 OFFCURVE",
"837.333 1226.667 OFFCURVE",
"894 1412 CURVE SMOOTH",
"900 1432.667 OFFCURVE",
"913 1443 OFFCURVE",
"933 1443 CURVE SMOOTH",
"1035 1443 LINE SMOOTH",
"1047 1443 OFFCURVE",
"1055.333 1439.5 OFFCURVE",
"1060 1432.5 CURVE SMOOTH",
"1064.667 1425.5 OFFCURVE",
"1065 1416 OFFCURVE",
"1061 1404 CURVE SMOOTH",
"1003 1214.667 OFFCURVE",
"940.667 1004.333 OFFCURVE",
"874 773 CURVE SMOOTH",
"807.333 541.667 OFFCURVE",
"741 293.667 OFFCURVE",
"675 29 CURVE SMOOTH",
"669.667 9.667 OFFCURVE",
"656.333 0 OFFCURVE",
"635 0 CURVE SMOOTH",
"467 0 LINE",
"467 0 LINE SMOOTH"
);
}
);
width = 1111;
}
);
note = "seven-ar";
unicode = 0667;
},
{
glyphname = "eight-ar";
layers = (
{
layerId = "EC0A993D-47FA-4182-AC72-4A7420448146";
paths = (
{
closed = 1;
nodes = (
"670.333 1443 OFFCURVE",
"683.333 1433.333 OFFCURVE",
"688 1414 CURVE SMOOTH",
"752.667 1156 OFFCURVE",
"818.833 909.833 OFFCURVE",
"886.5 675.5 CURVE SMOOTH",
"954.167 441.167 OFFCURVE",
"1017.333 229.333 OFFCURVE",
"1076 40 CURVE",
"1079.333 27.333 OFFCURVE",
"1078.667 17.5 OFFCURVE",
"1074 10.5 CURVE SMOOTH",
"1069.333 3.5 OFFCURVE",
"1061 0 OFFCURVE",
"1049 0 CURVE SMOOTH",
"948 0 LINE SMOOTH",
"928 0 OFFCURVE",
"915 10.333 OFFCURVE",
"909 31 CURVE SMOOTH",
"851.667 216.333 OFFCURVE",
"792.833 412.333 OFFCURVE",
"732.5 619 CURVE SMOOTH",
"672.167 825.667 OFFCURVE",
"615.333 1034.333 OFFCURVE",
"562 1245 CURVE",
"567 1245 LINE",
"514.333 1034.333 OFFCURVE",
"457.833 825.667 OFFCURVE",
"397.5 619 CURVE SMOOTH",
"337.167 412.333 OFFCURVE",
"278.667 216.333 OFFCURVE",
"222 31 CURVE SMOOTH",
"215.333 10.333 OFFCURVE",
"202.333 0 OFFCURVE",
"183 0 CURVE SMOOTH",
"81 0 LINE SMOOTH",
"69 0 OFFCURVE",
"60.667 3.5 OFFCURVE",
"56 10.5 CURVE SMOOTH",
"51.333 17.5 OFFCURVE",
"51 27.333 OFFCURVE",
"55 40 CURVE SMOOTH",
"113 228.667 OFFCURVE",
"175.333 438.667 OFFCURVE",
"242 670 CURVE SMOOTH",
"308.667 901.333 OFFCURVE",
"375 1149.333 OFFCURVE",
"441 1414 CURVE SMOOTH",
"445.667 1433.333 OFFCURVE",
"459 1443 OFFCURVE",
"481 1443 CURVE SMOOTH",
"649 1443 LINE",
"649 1443 LINE"
);
}
);
width = 1111;
}
);
note = "eight-ar";
unicode = 0668;
},
{
glyphname = "nine-ar";
layers = (
{
layerId = "EC0A993D-47FA-4182-AC72-4A7420448146";
paths = (
{
closed = 1;
nodes = (
"720.667 0 OFFCURVE",
"707.667 13 OFFCURVE",
"705 39 CURVE SMOOTH",
"615 903 LINE SMOOTH",
"606.333 987 OFFCURVE",
"592.167 1055.833 OFFCURVE",
"572.5 1109.5 CURVE SMOOTH",
"552.833 1163.167 OFFCURVE",
"528 1202.833 OFFCURVE",
"498 1228.5 CURVE SMOOTH",
"468 1254.167 OFFCURVE",
"432.333 1267 OFFCURVE",
"391 1267 CURVE SMOOTH",
"346.333 1267 OFFCURVE",
"308.667 1254.5 OFFCURVE",
"278 1229.5 CURVE SMOOTH",
"247.333 1204.5 OFFCURVE",
"224.167 1174.333 OFFCURVE",
"208.5 1139 CURVE SMOOTH",
"192.833 1103.667 OFFCURVE",
"185 1070 OFFCURVE",
"185 1038 CURVE SMOOTH",
"185 988.667 OFFCURVE",
"203.167 951 OFFCURVE",
"239.5 925 CURVE SMOOTH",
"275.833 899 OFFCURVE",
"323.333 886 OFFCURVE",
"382 886 CURVE SMOOTH",
"412 886 OFFCURVE",
"442.833 889.333 OFFCURVE",
"474.5 896 CURVE SMOOTH",
"506.167 902.667 OFFCURVE",
"536.167 911.667 OFFCURVE",
"564.5 923 CURVE SMOOTH",
"592.833 934.333 OFFCURVE",
"616.667 947 OFFCURVE",
"636 961 CURVE",
"660 783 LINE",
"627.333 752.333 OFFCURVE",
"586.167 728.5 OFFCURVE",
"536.5 711.5 CURVE SMOOTH",
"486.833 694.5 OFFCURVE",
"433 686 OFFCURVE",
"375 686 CURVE SMOOTH",
"263.667 686 OFFCURVE",
"177.5 716.5 OFFCURVE",
"116.5 777.5 CURVE SMOOTH",
"55.5 838.5 OFFCURVE",
"25 922 OFFCURVE",
"25 1028 CURVE SMOOTH",
"25 1108 OFFCURVE",
"41.167 1181.167 OFFCURVE",
"73.5 1247.5 CURVE SMOOTH",
"105.833 1313.833 OFFCURVE",
"150.667 1367 OFFCURVE",
"208 1407 CURVE SMOOTH",
"265.333 1447 OFFCURVE",
"330.667 1467 OFFCURVE",
"404 1467 CURVE SMOOTH",
"462 1467 OFFCURVE",
"516.5 1451.333 OFFCURVE",
"567.5 1420 CURVE SMOOTH",
"618.5 1388.667 OFFCURVE",
"662.333 1334.667 OFFCURVE",
"699 1258 CURVE SMOOTH",
"735.667 1181.333 OFFCURVE",
"761.333 1075 OFFCURVE",
"776 939 CURVE SMOOTH",
"874 39 LINE SMOOTH",
"876.667 13 OFFCURVE",
"864.667 0 OFFCURVE",
"838 0 CURVE SMOOTH",
"744 0 LINE",
"744 0 LINE SMOOTH"
);
}
);
width = 978;
}
);
note = "nine-ar";
unicode = 0669;
},
{
glyphname = "four-persian";
layers = (
{
layerId = "EC0A993D-47FA-4182-AC72-4A7420448146";
paths = (
{
closed = 1;
nodes = (
"755.667 823 OFFCURVE",
"702.333 825.5 OFFCURVE",
"651 830.5 CURVE SMOOTH",
"599.667 835.5 OFFCURVE",
"551 845.833 OFFCURVE",
"505 861.5 CURVE SMOOTH",
"459 877.167 OFFCURVE",
"416.167 900.333 OFFCURVE",
"376.5 931 CURVE SMOOTH",
"336.833 961.667 OFFCURVE",
"300.667 1002.667 OFFCURVE",
"268 1054 CURVE",
"231 1404 LINE",
"281 1404 LINE",
"291 1343.333 OFFCURVE",
"308.167 1290.833 OFFCURVE",
"332.5 1246.5 CURVE SMOOTH",
"356.833 1202.167 OFFCURVE",
"384.333 1165.5 OFFCURVE",
"415 1136.5 CURVE SMOOTH",
"445.667 1107.5 OFFCURVE",
"476.5 1085 OFFCURVE",
"507.5 1069 CURVE SMOOTH",
"538.5 1053 OFFCURVE",
"566 1042.333 OFFCURVE",
"590 1037 CURVE",
"588 984 LINE",
"549.333 1004 OFFCURVE",
"522 1032 OFFCURVE",
"506 1068 CURVE SMOOTH",
"490 1104 OFFCURVE",
"482 1140.333 OFFCURVE",
"482 1177 CURVE SMOOTH",
"482 1226.333 OFFCURVE",
"495.833 1271.833 OFFCURVE",
"523.5 1313.5 CURVE SMOOTH",
"551.167 1355.167 OFFCURVE",
"590.667 1388.833 OFFCURVE",
"642 1414.5 CURVE SMOOTH",
"693.333 1440.167 OFFCURVE",
"754.333 1453 OFFCURVE",
"825 1453 CURVE SMOOTH",
"861 1453 OFFCURVE",
"895.5 1449.833 OFFCURVE",
"928.5 1443.5 CURVE SMOOTH",
"961.5 1437.167 OFFCURVE",
"993.667 1428 OFFCURVE",
"1025 1416 CURVE SMOOTH",
"1035 1412 OFFCURVE",
"1042.333 1406.333 OFFCURVE",
"1047 1399 CURVE SMOOTH",
"1051.667 1391.667 OFFCURVE",
"1054 1382.333 OFFCURVE",
"1054 1371 CURVE SMOOTH",
"1054 1270 LINE SMOOTH",
"1054 1240 OFFCURVE",
"1039.333 1229 OFFCURVE",
"1010 1237 CURVE SMOOTH",
"978.667 1245.667 OFFCURVE",
"948.833 1252.167 OFFCURVE",
"920.5 1256.5 CURVE SMOOTH",
"892.167 1260.833 OFFCURVE",
"862.667 1263 OFFCURVE",
"832 1263 CURVE SMOOTH",
"775.333 1263 OFFCURVE",
"729.5 1251.833 OFFCURVE",
"694.5 1229.5 CURVE SMOOTH",
"659.5 1207.167 OFFCURVE",
"642 1179.333 OFFCURVE",
"642 1146 CURVE SMOOTH",
"642 1110 OFFCURVE",
"660.833 1080.667 OFFCURVE",
"698.5 1058 CURVE SMOOTH",
"736.167 1035.333 OFFCURVE",
"784.667 1023.667 OFFCURVE",
"844 1023 CURVE SMOOTH",
"881.333 1023 OFFCURVE",
"919.5 1025 OFFCURVE",
"958.5 1029 CURVE SMOOTH",
"997.5 1033 OFFCURVE",
"1034.667 1038 OFFCURVE",
"1070 1044 CURVE SMOOTH",
"1098.667 1048.667 OFFCURVE",
"1113 1037 OFFCURVE",
"1113 1009 CURVE SMOOTH",
"1113 895 LINE SMOOTH",
"1113 883 OFFCURVE",
"1110.5 873.333 OFFCURVE",
"1105.5 866 CURVE SMOOTH",
"1100.5 858.667 OFFCURVE",
"1091.667 853.667 OFFCURVE",
"1079 851 CURVE SMOOTH",
"1044.333 843.667 OFFCURVE",
"1003.5 837.167 OFFCURVE",
"956.5 831.5 CURVE SMOOTH",
"909.5 825.833 OFFCURVE",
"861 823 OFFCURVE",
"811 823 CURVE SMOOTH",
"811 823 LINE SMOOTH"
);
},
{
closed = 1;
nodes = (
"287.333 0 OFFCURVE",
"274.333 13 OFFCURVE",
"271 39 CURVE SMOOTH",
"112 1404 LINE SMOOTH",
"108.667 1430 OFFCURVE",
"120.333 1443 OFFCURVE",
"147 1443 CURVE SMOOTH",
"241 1443 LINE SMOOTH",
"264.333 1443 OFFCURVE",
"277.667 1430 OFFCURVE",
"281 1404 CURVE SMOOTH",
"440 39 LINE SMOOTH",
"443.333 13 OFFCURVE",
"431.333 0 OFFCURVE",
"404 0 CURVE SMOOTH",
"310 0 LINE",
"310 0 LINE SMOOTH"
);
}
);
width = 1211;
}
);
note = "four-persian";
unicode = 06F4;
},
{
glyphname = "five-persian";
layers = (
{
layerId = "EC0A993D-47FA-4182-AC72-4A7420448146";
paths = (
{
closed = 1;
nodes = (
"321 0 OFFCURVE",
"269 16.667 OFFCURVE",
"227 50 CURVE SMOOTH",
"185 83.333 OFFCURVE",
"153.333 129.333 OFFCURVE",
"132 188 CURVE SMOOTH",
"110.667 246.667 OFFCURVE",
"100 313.667 OFFCURVE",
"100 389 CURVE SMOOTH",
"100 493 OFFCURVE",
"118.667 596.167 OFFCURVE",
"156 698.5 CURVE SMOOTH",
"193.333 800.833 OFFCURVE",
"244 898.333 OFFCURVE",
"308 991 CURVE SMOOTH",
"372 1083.667 OFFCURVE",
"444.333 1168 OFFCURVE",
"525 1244 CURVE",
"651 1144 LINE",
"569 1071.333 OFFCURVE",
"498.833 994.167 OFFCURVE",
"440.5 912.5 CURVE SMOOTH",
"382.167 830.833 OFFCURVE",
"337.5 749.167 OFFCURVE",
"306.5 667.5 CURVE SMOOTH",
"275.5 585.833 OFFCURVE",
"260 508 OFFCURVE",
"260 434 CURVE SMOOTH",
"260 394 OFFCURVE",
"265.167 356.167 OFFCURVE",
"275.5 320.5 CURVE SMOOTH",
"285.833 284.833 OFFCURVE",
"302 255.833 OFFCURVE",
"324 233.5 CURVE SMOOTH",
"346 211.167 OFFCURVE",
"374.333 200 OFFCURVE",
"409 200 CURVE SMOOTH",
"442.333 200 OFFCURVE",
"468.333 209.667 OFFCURVE",
"487 229 CURVE SMOOTH",
"505.667 248.333 OFFCURVE",
"518.833 273.667 OFFCURVE",
"526.5 305 CURVE SMOOTH",
"534.167 336.333 OFFCURVE",
"538 370.333 OFFCURVE",
"538 407 CURVE SMOOTH",
"538 450 LINE SMOOTH",
"538 476 OFFCURVE",
"551 489 OFFCURVE",
"577 489 CURVE SMOOTH",
"649 489 LINE SMOOTH",
"675 489 OFFCURVE",
"688 476 OFFCURVE",
"688 450 CURVE SMOOTH",
"688 407 LINE SMOOTH",
"688 373.667 OFFCURVE",
"691 341.167 OFFCURVE",
"697 309.5 CURVE SMOOTH",
"703 277.833 OFFCURVE",
"715.167 251.667 OFFCURVE",
"733.5 231 CURVE SMOOTH",
"751.833 210.333 OFFCURVE",
"779.333 200 OFFCURVE",
"816 200 CURVE SMOOTH",
"850 200 OFFCURVE",
"877.333 210 OFFCURVE",
"898 230 CURVE SMOOTH",
"918.667 250 OFFCURVE",
"933.667 277 OFFCURVE",
"943 311 CURVE SMOOTH",
"952.333 345 OFFCURVE",
"957 382.667 OFFCURVE",
"957 424 CURVE SMOOTH",
"957 529.333 OFFCURVE",
"933.333 633.167 OFFCURVE",
"886 735.5 CURVE SMOOTH",
"838.667 837.833 OFFCURVE",
"773.167 935.833 OFFCURVE",
"689.5 1029.5 CURVE SMOOTH",
"605.833 1123.167 OFFCURVE",
"509.333 1209.333 OFFCURVE",
"400 1288 CURVE SMOOTH",
"378.667 1303.333 OFFCURVE",
"374.667 1321 OFFCURVE",
"388 1341 CURVE",
"443 1431 LINE SMOOTH",
"457.667 1454.333 OFFCURVE",
"475.667 1458.667 OFFCURVE",
"497 1444 CURVE SMOOTH",
"616.333 1360 OFFCURVE",
"722.667 1262.833 OFFCURVE",
"816 1152.5 CURVE SMOOTH",
"909.333 1042.167 OFFCURVE",
"982.833 925.667 OFFCURVE",
"1036.5 803 CURVE SMOOTH",
"1090.167 680.333 OFFCURVE",
"1117 558.667 OFFCURVE",
"1117 438 CURVE SMOOTH",
"1117 352.667 OFFCURVE",
"1105.333 277 OFFCURVE",
"1082 211 CURVE SMOOTH",
"1058.667 145 OFFCURVE",
"1025.333 93.333 OFFCURVE",
"982 56 CURVE SMOOTH",
"938.667 18.667 OFFCURVE",
"886.667 0 OFFCURVE",
"826 0 CURVE SMOOTH",
"771.333 0 OFFCURVE",
"725 14.833 OFFCURVE",
"687 44.5 CURVE SMOOTH",
"649 74.167 OFFCURVE",
"622.333 111.667 OFFCURVE",
"607 157 CURVE",
"589 109.667 OFFCURVE",
"561.5 71.667 OFFCURVE",
"524.5 43 CURVE SMOOTH",
"487.5 14.333 OFFCURVE",
"440.333 0 OFFCURVE",
"383 0 CURVE SMOOTH",
"383 0 LINE SMOOTH"
);
}
);
width = 1197;
}
);
note = "five-persian";
unicode = 06F5;
},
{
glyphname = "six-persian";
layers = (
{
layerId = "EC0A993D-47FA-4182-AC72-4A7420448146";
paths = (
{
closed = 1;
nodes = (
"62 0 OFFCURVE",
"52 4.167 OFFCURVE",
"46 12.5 CURVE SMOOTH",
"40 20.833 OFFCURVE",
"39.667 31.667 OFFCURVE",
"45 45 CURVE SMOOTH",
"83.667 146.333 OFFCURVE",
"125.167 239.667 OFFCURVE",
"169.5 325 CURVE SMOOTH",
"213.833 410.333 OFFCURVE",
"264 488.167 OFFCURVE",
"320 558.5 CURVE SMOOTH",
"376 628.833 OFFCURVE",
"441 692.333 OFFCURVE",
"515 749 CURVE",
"515 722 LINE",
"445.667 719.333 OFFCURVE",
"382.167 732.333 OFFCURVE",
"324.5 761 CURVE SMOOTH",
"266.833 789.667 OFFCURVE",
"220.833 831.667 OFFCURVE",
"186.5 887 CURVE SMOOTH",
"152.167 942.333 OFFCURVE",
"135 1007.333 OFFCURVE",
"135 1082 CURVE SMOOTH",
"135 1156.667 OFFCURVE",
"153.833 1222.833 OFFCURVE",
"191.5 1280.5 CURVE SMOOTH",
"229.167 1338.167 OFFCURVE",
"281 1383.667 OFFCURVE",
"347 1417 CURVE SMOOTH",
"413 1450.333 OFFCURVE",
"488.333 1467 OFFCURVE",
"573 1467 CURVE SMOOTH",
"609.667 1467 OFFCURVE",
"646.167 1463.833 OFFCURVE",
"682.5 1457.5 CURVE SMOOTH",
"718.833 1451.167 OFFCURVE",
"754 1442 OFFCURVE",
"788 1430 CURVE SMOOTH",
"808.667 1423.333 OFFCURVE",
"819 1408.667 OFFCURVE",
"819 1386 CURVE SMOOTH",
"819 1271 LINE SMOOTH",
"819 1241.667 OFFCURVE",
"804.333 1231 OFFCURVE",
"775 1239 CURVE SMOOTH",
"742.333 1247.667 OFFCURVE",
"709.5 1254.5 OFFCURVE",
"676.5 1259.5 CURVE SMOOTH",
"643.5 1264.5 OFFCURVE",
"610.667 1267 OFFCURVE",
"578 1267 CURVE SMOOTH",
"516 1267 OFFCURVE",
"464 1258.167 OFFCURVE",
"422 1240.5 CURVE SMOOTH",
"380 1222.833 OFFCURVE",
"348.333 1199 OFFCURVE",
"327 1169 CURVE SMOOTH",
"305.667 1139 OFFCURVE",
"295 1105.333 OFFCURVE",
"295 1068 CURVE SMOOTH",
"295 1012.667 OFFCURVE",
"316.5 967.667 OFFCURVE",
"359.5 933 CURVE SMOOTH",
"402.5 898.333 OFFCURVE",
"460.667 881 OFFCURVE",
"534 881 CURVE SMOOTH",
"568 881 OFFCURVE",
"602 884.167 OFFCURVE",
"636 890.5 CURVE SMOOTH",
"670 896.833 OFFCURVE",
"708.667 908.333 OFFCURVE",
"752 925 CURVE SMOOTH",
"779.333 935 OFFCURVE",
"808 945.667 OFFCURVE",
"838 957 CURVE SMOOTH",
"868 968.333 OFFCURVE",
"900 980 OFFCURVE",
"934 992 CURVE",
"947.333 996 OFFCURVE",
"958.167 995 OFFCURVE",
"966.5 989 CURVE SMOOTH",
"974.833 983 OFFCURVE",
"979 973.333 OFFCURVE",
"979 960 CURVE SMOOTH",
"979 840 LINE SMOOTH",
"979 818 OFFCURVE",
"968.333 803.333 OFFCURVE",
"947 796 CURVE SMOOTH",
"909 783.333 OFFCURVE",
"872.833 769.667 OFFCURVE",
"838.5 755 CURVE SMOOTH",
"804.167 740.333 OFFCURVE",
"771.333 724.667 OFFCURVE",
"740 708 CURVE SMOOTH",
"658 664 OFFCURVE",
"586 611.333 OFFCURVE",
"524 550 CURVE SMOOTH",
"462 488.667 OFFCURVE",
"405.833 415.5 OFFCURVE",
"355.5 330.5 CURVE SMOOTH",
"305.167 245.5 OFFCURVE",
"256.667 145.667 OFFCURVE",
"210 31 CURVE SMOOTH",
"202 10.333 OFFCURVE",
"187 0 OFFCURVE",
"165 0 CURVE SMOOTH",
"76 0 LINE",
"76 0 LINE SMOOTH"
);
}
);
width = 1033;
}
);
note = "six-persian";
unicode = 06F6;
},
{
glyphname = "four-persian.urdu";
layers = (
{
layerId = "EC0A993D-47FA-4182-AC72-4A7420448146";
paths = (
{
closed = 1;
nodes = (
"200.333 0 OFFCURVE",
"187.333 13 OFFCURVE",
"184 39 CURVE SMOOTH",
"97 766 LINE SMOOTH",
"86.333 853.333 OFFCURVE",
"79.167 918.5 OFFCURVE",
"75.5 961.5 CURVE SMOOTH",
"71.833 1004.5 OFFCURVE",
"70 1043 OFFCURVE",
"70 1077 CURVE SMOOTH",
"70 1201.667 OFFCURVE",
"99.833 1297.833 OFFCURVE",
"159.5 1365.5 CURVE SMOOTH",
"219.167 1433.167 OFFCURVE",
"298.667 1467 OFFCURVE",
"398 1467 CURVE SMOOTH",
"471.333 1467 OFFCURVE",
"533.667 1448 OFFCURVE",
"585 1410 CURVE SMOOTH",
"636.333 1372 OFFCURVE",
"669.333 1315.667 OFFCURVE",
"684 1241 CURVE",
"662 1241 LINE",
"671.333 1269 OFFCURVE",
"691.833 1298.667 OFFCURVE",
"723.5 1330 CURVE SMOOTH",
"755.167 1361.333 OFFCURVE",
"795.5 1388 OFFCURVE",
"844.5 1410 CURVE SMOOTH",
"893.5 1432 OFFCURVE",
"949.333 1443 OFFCURVE",
"1012 1443 CURVE SMOOTH",
"1038.667 1443 OFFCURVE",
"1052 1430.333 OFFCURVE",
"1052 1405 CURVE SMOOTH",
"1052 1283 LINE SMOOTH",
"1052 1256.333 OFFCURVE",
"1039 1243 OFFCURVE",
"1013 1243 CURVE SMOOTH",
"935 1243 OFFCURVE",
"870.333 1222.167 OFFCURVE",
"819 1180.5 CURVE SMOOTH",
"767.667 1138.833 OFFCURVE",
"742 1080.667 OFFCURVE",
"742 1006 CURVE SMOOTH",
"742 999 LINE SMOOTH",
"742 973 OFFCURVE",
"729 960 OFFCURVE",
"703 960 CURVE SMOOTH",
"631 960 LINE SMOOTH",
"605 960 OFFCURVE",
"592 973 OFFCURVE",
"592 999 CURVE SMOOTH",
"592 1006 LINE SMOOTH",
"592 1084 OFFCURVE",
"576 1147 OFFCURVE",
"544 1195 CURVE SMOOTH",
"512 1243 OFFCURVE",
"466.667 1267 OFFCURVE",
"408 1267 CURVE SMOOTH",
"356 1267 OFFCURVE",
"315.167 1249 OFFCURVE",
"285.5 1213 CURVE SMOOTH",
"255.833 1177 OFFCURVE",
"241 1126.667 OFFCURVE",
"241 1062 CURVE SMOOTH",
"241 1023.333 OFFCURVE",
"243.167 982.333 OFFCURVE",
"247.5 939 CURVE SMOOTH",
"251.833 895.667 OFFCURVE",
"257.333 846 OFFCURVE",
"264 790 CURVE SMOOTH",
"353 39 LINE SMOOTH",
"356.333 13 OFFCURVE",
"344.333 0 OFFCURVE",
"317 0 CURVE SMOOTH",
"223 0 LINE",
"223 0 LINE SMOOTH"
);
}
);
width = 1097;
}
);
note = "four-persian.urdu";
},
{
glyphname = "seven-persian.urdu";
layers = (
{
layerId = "EC0A993D-47FA-4182-AC72-4A7420448146";
paths = (
{
closed = 1;
nodes = (
"462.333 0 OFFCURVE",
"370.833 14.333 OFFCURVE",
"298.5 43 CURVE SMOOTH",
"226.167 71.667 OFFCURVE",
"172.5 115.333 OFFCURVE",
"137.5 174 CURVE SMOOTH",
"102.5 232.667 OFFCURVE",
"85 307.333 OFFCURVE",
"85 398 CURVE SMOOTH",
"85 506.667 OFFCURVE",
"108.667 618.667 OFFCURVE",
"156 734 CURVE SMOOTH",
"203.333 849.333 OFFCURVE",
"269.5 966.167 OFFCURVE",
"354.5 1084.5 CURVE SMOOTH",
"439.5 1202.833 OFFCURVE",
"539 1320.333 OFFCURVE",
"653 1437 CURVE SMOOTH",
"665.667 1449.667 OFFCURVE",
"677 1454 OFFCURVE",
"687 1450 CURVE SMOOTH",
"697 1446 OFFCURVE",
"702 1435.333 OFFCURVE",
"702 1418 CURVE SMOOTH",
"702 1277 LINE SMOOTH",
"702 1259 OFFCURVE",
"694 1241 OFFCURVE",
"678 1223 CURVE SMOOTH",
"612 1151 OFFCURVE",
"552.5 1079 OFFCURVE",
"499.5 1007 CURVE SMOOTH",
"446.5 935 OFFCURVE",
"401 864 OFFCURVE",
"363 794 CURVE SMOOTH",
"325 724 OFFCURVE",
"295.833 656.667 OFFCURVE",
"275.5 592 CURVE SMOOTH",
"255.167 527.333 OFFCURVE",
"245 466.667 OFFCURVE",
"245 410 CURVE SMOOTH",
"245 356 OFFCURVE",
"258.333 313.667 OFFCURVE",
"285 283 CURVE SMOOTH",
"311.667 252.333 OFFCURVE",
"350.167 230.833 OFFCURVE",
"400.5 218.5 CURVE SMOOTH",
"450.833 206.167 OFFCURVE",
"511 200 OFFCURVE",
"581 200 CURVE SMOOTH",
"638.333 200 OFFCURVE",
"696 202.333 OFFCURVE",
"754 207 CURVE SMOOTH",
"812 211.667 OFFCURVE",
"866.667 218.667 OFFCURVE",
"918 228 CURVE SMOOTH",
"946 233.333 OFFCURVE",
"960 221.667 OFFCURVE",
"960 193 CURVE SMOOTH",
"960 74 LINE SMOOTH",
"960 50.667 OFFCURVE",
"950.667 37 OFFCURVE",
"932 33 CURVE SMOOTH",
"880 21.667 OFFCURVE",
"823.5 13.333 OFFCURVE",
"762.5 8 CURVE SMOOTH",
"701.5 2.667 OFFCURVE",
"638.333 0 OFFCURVE",
"573 0 CURVE SMOOTH",
"573 0 LINE SMOOTH"
);
}
);
width = 975;
}
);
note = "seven-persian.urdu";
},
{
glyphname = period;
layers = (
{
layerId = "EC0A993D-47FA-4182-AC72-4A7420448146";
paths = (
{
closed = 1;
nodes = (
"182 -14 OFFCURVE",
"155 -3 OFFCURVE",
"133 19 CURVE SMOOTH",
"111 41 OFFCURVE",
"100 68 OFFCURVE",
"100 100 CURVE SMOOTH",
"100 132 OFFCURVE",
"111 159 OFFCURVE",
"133 181 CURVE SMOOTH",
"155 203 OFFCURVE",
"182 214 OFFCURVE",
"214 214 CURVE SMOOTH",
"246 214 OFFCURVE",
"273 203 OFFCURVE",
"295 181 CURVE SMOOTH",
"317 159 OFFCURVE",
"328 132 OFFCURVE",
"328 100 CURVE SMOOTH",
"328 68 OFFCURVE",
"317 41 OFFCURVE",
"295 19 CURVE SMOOTH",
"273 -3 OFFCURVE",
"246 -14 OFFCURVE",
"214 -14 CURVE SMOOTH",
"214 -14 LINE SMOOTH"
);
}
);
width = 428;
}
);
note = period;
unicode = 002E;
},
{
glyphname = comma;
layers = (
{
layerId = "EC0A993D-47FA-4182-AC72-4A7420448146";
paths = (
{
closed = 1;
nodes = (
"72 -283 OFFCURVE",
"62.833 -279.333 OFFCURVE",
"56.5 -272 CURVE SMOOTH",
"50.167 -264.667 OFFCURVE",
"48.333 -254 OFFCURVE",
"51 -240 CURVE SMOOTH",
"124 168 LINE SMOOTH",
"128.667 193.333 OFFCURVE",
"143 206 OFFCURVE",
"167 206 CURVE SMOOTH",
"269 206 LINE SMOOTH",
"281 206 OFFCURVE",
"290 201.5 OFFCURVE",
"296 192.5 CURVE SMOOTH",
"302 183.5 OFFCURVE",
"303 172.667 OFFCURVE",
"299 160 CURVE SMOOTH",
"178 -248 LINE SMOOTH",
"170.667 -271.333 OFFCURVE",
"155.333 -283 OFFCURVE",
"132 -283 CURVE SMOOTH",
"84 -283 LINE",
"84 -283 LINE SMOOTH"
);
}
);
width = 440;
}
);
note = comma;
unicode = 002C;
},
{
glyphname = colon;
layers = (
{
layerId = "EC0A993D-47FA-4182-AC72-4A7420448146";
paths = (
{
closed = 1;
nodes = (
"182 726 OFFCURVE",
"155 737 OFFCURVE",
"133 759 CURVE SMOOTH",
"111 781 OFFCURVE",
"100 808 OFFCURVE",
"100 840 CURVE SMOOTH",
"100 872 OFFCURVE",
"111 899 OFFCURVE",
"133 921 CURVE SMOOTH",
"155 943 OFFCURVE",
"182 954 OFFCURVE",
"214 954 CURVE SMOOTH",
"246 954 OFFCURVE",
"273 943 OFFCURVE",
"295 921 CURVE SMOOTH",
"317 899 OFFCURVE",
"328 872 OFFCURVE",
"328 840 CURVE SMOOTH",
"328 808 OFFCURVE",
"317 781 OFFCURVE",
"295 759 CURVE SMOOTH",
"273 737 OFFCURVE",
"246 726 OFFCURVE",
"214 726 CURVE SMOOTH",
"214 726 LINE SMOOTH"
);
},
{
closed = 1;
nodes = (
"182 -10 OFFCURVE",
"155 1 OFFCURVE",
"133 23 CURVE SMOOTH",
"111 45 OFFCURVE",
"100 72 OFFCURVE",
"100 104 CURVE SMOOTH",
"100 136 OFFCURVE",
"111 163 OFFCURVE",
"133 185 CURVE SMOOTH",
"155 207 OFFCURVE",
"182 218 OFFCURVE",
"214 218 CURVE SMOOTH",
"246 218 OFFCURVE",
"273 207 OFFCURVE",
"295 185 CURVE SMOOTH",
"317 163 OFFCURVE",
"328 136 OFFCURVE",
"328 104 CURVE SMOOTH",
"328 72 OFFCURVE",
"317 45 OFFCURVE",
"295 23 CURVE SMOOTH",
"273 1 OFFCURVE",
"246 -10 OFFCURVE",
"214 -10 CURVE SMOOTH",
"214 -10 LINE SMOOTH"
);
}
);
width = 428;
}
);
note = colon;
unicode = 003A;
},
{
glyphname = slash;
layers = (
{
layerId = "EC0A993D-47FA-4182-AC72-4A7420448146";
paths = (
{
closed = 1;
nodes = (
"17 -175 OFFCURVE",
"4 -157.667 OFFCURVE",
"12 -123 CURVE SMOOTH",
"397 1572 LINE SMOOTH",
"400.333 1588.667 OFFCURVE",
"406 1600.5 OFFCURVE",
"414 1607.5 CURVE SMOOTH",
"422 1614.5 OFFCURVE",
"434 1618 OFFCURVE",
"450 1618 CURVE SMOOTH",
"522 1618 LINE SMOOTH",
"556 1618 OFFCURVE",
"569 1600.667 OFFCURVE",
"561 1566 CURVE SMOOTH",
"176 -129 LINE SMOOTH",
"172.667 -145.667 OFFCURVE",
"167 -157.5 OFFCURVE",
"159 -164.5 CURVE SMOOTH",
"151 -171.5 OFFCURVE",
"139 -175 OFFCURVE",
"123 -175 CURVE SMOOTH",
"51 -175 LINE",
"51 -175 LINE SMOOTH"
);
}
);
width = 572;
}
);
note = slash;
unicode = 002F;
},
{
glyphname = hyphen;
layers = (
{
layerId = "EC0A993D-47FA-4182-AC72-4A7420448146";
paths = (
{
closed = 1;
nodes = (
"131.667 641 OFFCURVE",
"119 654 OFFCURVE",
"119 680 CURVE SMOOTH",
"119 764 LINE SMOOTH",
"119 790 OFFCURVE",
"132 803 OFFCURVE",
"158 803 CURVE SMOOTH",
"720 803 LINE SMOOTH",
"746 803 OFFCURVE",
"759 790 OFFCURVE",
"759 764 CURVE SMOOTH",
"759 680 LINE SMOOTH",
"759 654 OFFCURVE",
"746 641 OFFCURVE",
"720 641 CURVE SMOOTH",
"157 641 LINE",
"157 641 LINE SMOOTH"
);
}
);
width = 878;
}
);
note = hyphen;
unicode = 002D;
},
{
glyphname = quotesingle;
layers = (
{
layerId = "EC0A993D-47FA-4182-AC72-4A7420448146";
paths = (
{
closed = 1;
nodes = (
"209 934 OFFCURVE",
"195.667 947 OFFCURVE",
"195 973 CURVE SMOOTH",
"178 1404 LINE SMOOTH",
"177.333 1430 OFFCURVE",
"190.333 1443 OFFCURVE",
"217 1443 CURVE SMOOTH",
"303 1443 LINE SMOOTH",
"329.667 1443 OFFCURVE",
"342.667 1430 OFFCURVE",
"342 1404 CURVE SMOOTH",
"324 973 LINE SMOOTH",
"323.333 947 OFFCURVE",
"310.667 934 OFFCURVE",
"286 934 CURVE SMOOTH",
"235 934 LINE",
"235 934 LINE SMOOTH"
);
}
);
width = 520;
}
);
note = quotesingle;
unicode = 0027;
},
{
glyphname = .notdef;
layers = (
{
layerId = "EC0A993D-47FA-4182-AC72-4A7420448146";
paths = (
{
closed = 1;
nodes = (
"100 -494 LINE",
"100 -210 LINE",
"1948 -210 LINE",
"1948 -494 LINE",
"100 -494 LINE"
);
},
{
closed = 1;
nodes = (
"100 -62 LINE",
"100 222 LINE",
"1948 222 LINE",
"1948 -62 LINE",
"100 -62 LINE"
);
},
{
closed = 1;
nodes = (
"100 370 LINE",
"100 654 LINE",
"1948 654 LINE",
"1948 370 LINE",
"100 370 LINE"
);
},
{
closed = 1;
nodes = (
"100 802 LINE",
"100 1086 LINE",
"1948 1086 LINE",
"1948 802 LINE",
"100 802 LINE"
);
},
{
closed = 1;
nodes = (
"100 1234 LINE",
"100 1518 LINE",
"1948 1518 LINE",
"1948 1234 LINE",
"100 1234 LINE"
);
},
{
closed = 1;
nodes = (
"100 1666 LINE",
"100 1950 LINE",
"1948 1950 LINE",
"1948 1666 LINE",
"100 1666 LINE"
);
}
);
width = 2048;
}
);
note = .notdef;
},
{
glyphname = degree;
layers = (
{
layerId = "EC0A993D-47FA-4182-AC72-4A7420448146";
paths = (
{
closed = 1;
nodes = (
"352.667 812 OFFCURVE",
"301.333 825.167 OFFCURVE",
"256 851.5 CURVE SMOOTH",
"210.667 877.833 OFFCURVE",
"175 913.667 OFFCURVE",
"149 959 CURVE SMOOTH",
"123 1004.333 OFFCURVE",
"110 1055.333 OFFCURVE",
"110 1112 CURVE SMOOTH",
"110 1113 LINE SMOOTH",
"110.667 1169.667 OFFCURVE",
"124 1220.5 OFFCURVE",
"150 1265.5 CURVE SMOOTH",
"176 1310.5 OFFCURVE",
"211.667 1346.167 OFFCURVE",
"257 1372.5 CURVE SMOOTH",
"302.333 1398.833 OFFCURVE",
"353.333 1412 OFFCURVE",
"410 1412 CURVE SMOOTH",
"466.667 1412 OFFCURVE",
"517.5 1398.833 OFFCURVE",
"562.5 1372.5 CURVE SMOOTH",
"607.5 1346.167 OFFCURVE",
"643.333 1310.5 OFFCURVE",
"670 1265.5 CURVE SMOOTH",
"696.667 1220.5 OFFCURVE",
"710 1169.667 OFFCURVE",
"710 1113 CURVE SMOOTH",
"710 1112 LINE SMOOTH",
"710 1055.333 OFFCURVE",
"696.833 1004.333 OFFCURVE",
"670.5 959 CURVE SMOOTH",
"644.167 913.667 OFFCURVE",
"608.333 877.833 OFFCURVE",
"563 851.5 CURVE SMOOTH",
"517.667 825.167 OFFCURVE",
"466.667 812 OFFCURVE",
"410 812 CURVE SMOOTH",
"410 812 LINE SMOOTH"
);
},
{
closed = 1;
nodes = (
"453.333 957 OFFCURVE",
"489.167 971.5 OFFCURVE",
"517.5 1000.5 CURVE SMOOTH",
"545.833 1029.5 OFFCURVE",
"560 1066.333 OFFCURVE",
"560 1111 CURVE SMOOTH",
"560 1112 LINE SMOOTH",
"560 1158 OFFCURVE",
"545.833 1195.333 OFFCURVE",
"517.5 1224 CURVE SMOOTH",
"489.167 1252.667 OFFCURVE",
"453.333 1267 OFFCURVE",
"410 1267 CURVE SMOOTH",
"369.333 1267 OFFCURVE",
"334.167 1252.667 OFFCURVE",
"304.5 1224 CURVE SMOOTH",
"274.833 1195.333 OFFCURVE",
"260 1158 OFFCURVE",
"260 1112 CURVE SMOOTH",
"260 1111 LINE SMOOTH",
"260 1066.333 OFFCURVE",
"274.667 1029.5 OFFCURVE",
"304 1000.5 CURVE SMOOTH",
"333.333 971.5 OFFCURVE",
"368.667 957 OFFCURVE",
"410 957 CURVE",
"410 957 LINE"
);
}
);
width = 820;
}
);
note = degree;
unicode = 00B0;
},
{
glyphname = plus;
layers = (
{
layerId = "EC0A993D-47FA-4182-AC72-4A7420448146";
paths = (
{
closed = 1;
nodes = (
"124.667 641 OFFCURVE",
"112 654 OFFCURVE",
"112 680 CURVE SMOOTH",
"112 764 LINE SMOOTH",
"112 790 OFFCURVE",
"125 803 OFFCURVE",
"151 803 CURVE SMOOTH",
"1088 803 LINE SMOOTH",
"1114 803 OFFCURVE",
"1127 790 OFFCURVE",
"1127 764 CURVE SMOOTH",
"1127 680 LINE SMOOTH",
"1127 654 OFFCURVE",
"1114 641 OFFCURVE",
"1088 641 CURVE SMOOTH",
"150 641 LINE",
"150 641 LINE SMOOTH"
);
},
{
closed = 1;
nodes = (
"551 227 OFFCURVE",
"538 240 OFFCURVE",
"538 266 CURVE SMOOTH",
"538 1178 LINE SMOOTH",
"538 1204 OFFCURVE",
"551 1217 OFFCURVE",
"577 1217 CURVE SMOOTH",
"661 1217 LINE SMOOTH",
"687 1217 OFFCURVE",
"700 1204 OFFCURVE",
"700 1178 CURVE SMOOTH",
"700 266 LINE SMOOTH",
"700 240 OFFCURVE",
"687 227 OFFCURVE",
"661 227 CURVE SMOOTH",
"577 227 LINE",
"577 227 LINE SMOOTH"
);
}
);
width = 1238;
}
);
note = plus;
unicode = 002B;
},
{
glyphname = minus;
layers = (
{
layerId = "EC0A993D-47FA-4182-AC72-4A7420448146";
paths = (
{
closed = 1;
nodes = (
"136.667 641 OFFCURVE",
"124 654 OFFCURVE",
"124 680 CURVE SMOOTH",
"124 764 LINE SMOOTH",
"124 790 OFFCURVE",
"137 803 OFFCURVE",
"163 803 CURVE SMOOTH",
"1075 803 LINE SMOOTH",
"1101 803 OFFCURVE",
"1114 790 OFFCURVE",
"1114 764 CURVE SMOOTH",
"1114 680 LINE SMOOTH",
"1114 654 OFFCURVE",
"1101 641 OFFCURVE",
"1075 641 CURVE SMOOTH",
"162 641 LINE",
"162 641 LINE SMOOTH"
);
}
);
width = 1238;
}
);
note = minus;
unicode = 2212;
},
{
glyphname = percent;
layers = (
{
layerId = "EC0A993D-47FA-4182-AC72-4A7420448146";
paths = (
{
closed = 1;
nodes = (
"327 0 OFFCURVE",
"316.667 5.333 OFFCURVE",
"312 16 CURVE SMOOTH",
"307.333 26.667 OFFCURVE",
"309 38.333 OFFCURVE",
"317 51 CURVE SMOOTH",
"1187 1409 LINE SMOOTH",
"1195 1421.667 OFFCURVE",
"1202.833 1430.5 OFFCURVE",
"1210.5 1435.5 CURVE SMOOTH",
"1218.167 1440.5 OFFCURVE",
"1229.333 1443 OFFCURVE",
"1244 1443 CURVE SMOOTH",
"1314 1443 LINE SMOOTH",
"1330 1443 OFFCURVE",
"1340.333 1437.667 OFFCURVE",
"1345 1427 CURVE SMOOTH",
"1349.667 1416.333 OFFCURVE",
"1348 1404.667 OFFCURVE",
"1340 1392 CURVE SMOOTH",
"470 34 LINE SMOOTH",
"462 21.333 OFFCURVE",
"454.167 12.5 OFFCURVE",
"446.5 7.5 CURVE SMOOTH",
"438.833 2.5 OFFCURVE",
"427.667 0 OFFCURVE",
"413 0 CURVE SMOOTH",
"343 0 LINE",
"343 0 LINE SMOOTH"
);
},
{
closed = 1;
nodes = (
"292.333 731 OFFCURVE",
"221 763.5 OFFCURVE",
"169 828.5 CURVE SMOOTH",
"117 893.5 OFFCURVE",
"91 981.667 OFFCURVE",
"91 1093 CURVE SMOOTH",
"91 1094 LINE SMOOTH",
"91 1205.333 OFFCURVE",
"117 1293.333 OFFCURVE",
"169 1358 CURVE SMOOTH",
"221 1422.667 OFFCURVE",
"292.333 1455 OFFCURVE",
"383 1455 CURVE SMOOTH",
"474.333 1455 OFFCURVE",
"545.833 1422.667 OFFCURVE",
"597.5 1358 CURVE SMOOTH",
"649.167 1293.333 OFFCURVE",
"675 1205.333 OFFCURVE",
"675 1094 CURVE SMOOTH",
"675 1093 LINE SMOOTH",
"675 981.667 OFFCURVE",
"649.167 893.5 OFFCURVE",
"597.5 828.5 CURVE SMOOTH",
"545.833 763.5 OFFCURVE",
"474.333 731 OFFCURVE",
"383 731 CURVE SMOOTH",
"383 731 LINE SMOOTH"
);
},
{
closed = 1;
nodes = (
"431.667 851 OFFCURVE",
"469.333 872.333 OFFCURVE",
"496 915 CURVE SMOOTH",
"522.667 957.667 OFFCURVE",
"536 1017 OFFCURVE",
"536 1093 CURVE SMOOTH",
"536 1094 LINE SMOOTH",
"536 1170 OFFCURVE",
"522.667 1229.167 OFFCURVE",
"496 1271.5 CURVE SMOOTH",
"469.333 1313.833 OFFCURVE",
"431.667 1335 OFFCURVE",
"383 1335 CURVE SMOOTH",
"334.333 1335 OFFCURVE",
"296.667 1313.833 OFFCURVE",
"270 1271.5 CURVE SMOOTH",
"243.333 1229.167 OFFCURVE",
"230 1170 OFFCURVE",
"230 1094 CURVE SMOOTH",
"230 1093 LINE SMOOTH",
"230 1017 OFFCURVE",
"243.333 957.667 OFFCURVE",
"270 915 CURVE SMOOTH",
"296.667 872.333 OFFCURVE",
"334.333 851 OFFCURVE",
"383 851 CURVE",
"383 851 LINE"
);
},
{
closed = 1;
nodes = (
"1181.333 -12 OFFCURVE",
"1110 20.5 OFFCURVE",
"1058 85.5 CURVE SMOOTH",
"1006 150.5 OFFCURVE",
"980 238.667 OFFCURVE",
"980 350 CURVE SMOOTH",
"980 351 LINE SMOOTH",
"980 462.333 OFFCURVE",
"1006 550.333 OFFCURVE",
"1058 615 CURVE SMOOTH",
"1110 679.667 OFFCURVE",
"1181.333 712 OFFCURVE",
"1272 712 CURVE SMOOTH",
"1363.333 712 OFFCURVE",
"1434.833 679.667 OFFCURVE",
"1486.5 615 CURVE SMOOTH",
"1538.167 550.333 OFFCURVE",
"1564 462.333 OFFCURVE",
"1564 351 CURVE SMOOTH",
"1564 350 LINE SMOOTH",
"1564 238.667 OFFCURVE",
"1538.167 150.5 OFFCURVE",
"1486.5 85.5 CURVE SMOOTH",
"1434.833 20.5 OFFCURVE",
"1363.333 -12 OFFCURVE",
"1272 -12 CURVE SMOOTH",
"1272 -12 LINE SMOOTH"
);
},
{
closed = 1;
nodes = (
"1320.667 108 OFFCURVE",
"1358.333 129.333 OFFCURVE",
"1385 172 CURVE SMOOTH",
"1411.667 214.667 OFFCURVE",
"1425 274 OFFCURVE",
"1425 350 CURVE SMOOTH",
"1425 351 LINE SMOOTH",
"1425 427 OFFCURVE",
"1411.667 486.167 OFFCURVE",
"1385 528.5 CURVE SMOOTH",
"1358.333 570.833 OFFCURVE",
"1320.667 592 OFFCURVE",
"1272 592 CURVE SMOOTH",
"1223.333 592 OFFCURVE",
"1185.667 570.833 OFFCURVE",
"1159 528.5 CURVE SMOOTH",
"1132.333 486.167 OFFCURVE",
"1119 427 OFFCURVE",
"1119 351 CURVE SMOOTH",
"1119 350 LINE SMOOTH",
"1119 274 OFFCURVE",
"1132.333 214.667 OFFCURVE",
"1159 172 CURVE SMOOTH",
"1185.667 129.333 OFFCURVE",
"1223.333 108 OFFCURVE",
"1272 108 CURVE",
"1272 108 LINE"
);
}
);
width = 1655;
}
);
note = percent;
unicode = 0025;
},
{
glyphname = "percent-ar";
layers = (
{
layerId = "EC0A993D-47FA-4182-AC72-4A7420448146";
paths = (
{
closed = 1;
nodes = (
"132 0 OFFCURVE",
"121.667 5.333 OFFCURVE",
"117 16 CURVE SMOOTH",
"112.333 26.667 OFFCURVE",
"114 38.333 OFFCURVE",
"122 51 CURVE SMOOTH",
"992 1409 LINE SMOOTH",
"1000 1421.667 OFFCURVE",
"1007.833 1430.5 OFFCURVE",
"1015.5 1435.5 CURVE SMOOTH",
"1023.167 1440.5 OFFCURVE",
"1034.333 1443 OFFCURVE",
"1049 1443 CURVE SMOOTH",
"1119 1443 LINE SMOOTH",
"1135 1443 OFFCURVE",
"1145.333 1437.667 OFFCURVE",
"1150 1427 CURVE SMOOTH",
"1154.667 1416.333 OFFCURVE",
"1153 1404.667 OFFCURVE",
"1145 1392 CURVE SMOOTH",
"275 34 LINE SMOOTH",
"267 21.333 OFFCURVE",
"259.167 12.5 OFFCURVE",
"251.5 7.5 CURVE SMOOTH",
"243.833 2.5 OFFCURVE",
"232.667 0 OFFCURVE",
"218 0 CURVE SMOOTH",
"148 0 LINE",
"148 0 LINE SMOOTH"
);
},
{
closed = 1;
nodes = (
"975 -22 OFFCURVE",
"948 -11 OFFCURVE",
"926 11 CURVE SMOOTH",
"904 33 OFFCURVE",
"893 60 OFFCURVE",
"893 92 CURVE SMOOTH",
"893 124 OFFCURVE",
"904 151 OFFCURVE",
"926 173 CURVE SMOOTH",
"948 195 OFFCURVE",
"975 206 OFFCURVE",
"1007 206 CURVE SMOOTH",
"1039 206 OFFCURVE",
"1066 195 OFFCURVE",
"1088 173 CURVE SMOOTH",
"1110 151 OFFCURVE",
"1121 124 OFFCURVE",
"1121 92 CURVE SMOOTH",
"1121 60 OFFCURVE",
"1110 33 OFFCURVE",
"1088 11 CURVE SMOOTH",
"1066 -11 OFFCURVE",
"1039 -22 OFFCURVE",
"1007 -22 CURVE SMOOTH",
"1007 -22 LINE SMOOTH"
);
},
{
closed = 1;
nodes = (
"226 1237 OFFCURVE",
"199 1248 OFFCURVE",
"177 1270 CURVE SMOOTH",
"155 1292 OFFCURVE",
"144 1319 OFFCURVE",
"144 1351 CURVE SMOOTH",
"144 1383 OFFCURVE",
"155 1410 OFFCURVE",
"177 1432 CURVE SMOOTH",
"199 1454 OFFCURVE",
"226 1465 OFFCURVE",
"258 1465 CURVE SMOOTH",
"290 1465 OFFCURVE",
"317 1454 OFFCURVE",
"339 1432 CURVE SMOOTH",
"361 1410 OFFCURVE",
"372 1383 OFFCURVE",
"372 1351 CURVE SMOOTH",
"372 1319 OFFCURVE",
"361 1292 OFFCURVE",
"339 1270 CURVE SMOOTH",
"317 1248 OFFCURVE",
"290 1237 OFFCURVE",
"258 1237 CURVE SMOOTH",
"258 1237 LINE SMOOTH"
);
}
